%TF.GenerationSoftware,KiCad,Pcbnew,(6.0.4)*%
%TF.CreationDate,2022-04-25T15:33:24+02:00*%
%TF.ProjectId,HEX_PCB,4845585f-5043-4422-9e6b-696361645f70,rev?*%
%TF.SameCoordinates,Original*%
%TF.FileFunction,Legend,Top*%
%TF.FilePolarity,Positive*%
%FSLAX46Y46*%
G04 Gerber Fmt 4.6, Leading zero omitted, Abs format (unit mm)*
G04 Created by KiCad (PCBNEW (6.0.4)) date 2022-04-25 15:33:24*
%MOMM*%
%LPD*%
G01*
G04 APERTURE LIST*
%ADD10C,0.150000*%
%ADD11C,0.120000*%
G04 APERTURE END LIST*
D10*
X114046095Y-115324000D02*
X113950857Y-115276380D01*
X113808000Y-115276380D01*
X113665142Y-115324000D01*
X113569904Y-115419238D01*
X113522285Y-115514476D01*
X113474666Y-115704952D01*
X113474666Y-115847809D01*
X113522285Y-116038285D01*
X113569904Y-116133523D01*
X113665142Y-116228761D01*
X113808000Y-116276380D01*
X113903238Y-116276380D01*
X114046095Y-116228761D01*
X114093714Y-116181142D01*
X114093714Y-115847809D01*
X113903238Y-115847809D01*
X114522285Y-116276380D02*
X114522285Y-115276380D01*
X115093714Y-116276380D01*
X115093714Y-115276380D01*
X115569904Y-116276380D02*
X115569904Y-115276380D01*
X115808000Y-115276380D01*
X115950857Y-115324000D01*
X116046095Y-115419238D01*
X116093714Y-115514476D01*
X116141333Y-115704952D01*
X116141333Y-115847809D01*
X116093714Y-116038285D01*
X116046095Y-116133523D01*
X115950857Y-116228761D01*
X115808000Y-116276380D01*
X115569904Y-116276380D01*
X109720476Y-113228380D02*
X109720476Y-112228380D01*
X109958571Y-112228380D01*
X110101428Y-112276000D01*
X110196666Y-112371238D01*
X110244285Y-112466476D01*
X110291904Y-112656952D01*
X110291904Y-112799809D01*
X110244285Y-112990285D01*
X110196666Y-113085523D01*
X110101428Y-113180761D01*
X109958571Y-113228380D01*
X109720476Y-113228380D01*
X110672857Y-112942666D02*
X111149047Y-112942666D01*
X110577619Y-113228380D02*
X110910952Y-112228380D01*
X111244285Y-113228380D01*
X111434761Y-112228380D02*
X112006190Y-112228380D01*
X111720476Y-113228380D02*
X111720476Y-112228380D01*
X112291904Y-112942666D02*
X112768095Y-112942666D01*
X112196666Y-113228380D02*
X112530000Y-112228380D01*
X112863333Y-113228380D01*
X114149047Y-112228380D02*
X114339523Y-112228380D01*
X114434761Y-112276000D01*
X114530000Y-112371238D01*
X114577619Y-112561714D01*
X114577619Y-112895047D01*
X114530000Y-113085523D01*
X114434761Y-113180761D01*
X114339523Y-113228380D01*
X114149047Y-113228380D01*
X114053809Y-113180761D01*
X113958571Y-113085523D01*
X113910952Y-112895047D01*
X113910952Y-112561714D01*
X113958571Y-112371238D01*
X114053809Y-112276000D01*
X114149047Y-112228380D01*
X115006190Y-112228380D02*
X115006190Y-113037904D01*
X115053809Y-113133142D01*
X115101428Y-113180761D01*
X115196666Y-113228380D01*
X115387142Y-113228380D01*
X115482380Y-113180761D01*
X115530000Y-113133142D01*
X115577619Y-113037904D01*
X115577619Y-112228380D01*
X115910952Y-112228380D02*
X116482380Y-112228380D01*
X116196666Y-113228380D02*
X116196666Y-112228380D01*
X100068190Y-125880761D02*
X100211047Y-125928380D01*
X100449142Y-125928380D01*
X100544380Y-125880761D01*
X100592000Y-125833142D01*
X100639619Y-125737904D01*
X100639619Y-125642666D01*
X100592000Y-125547428D01*
X100544380Y-125499809D01*
X100449142Y-125452190D01*
X100258666Y-125404571D01*
X100163428Y-125356952D01*
X100115809Y-125309333D01*
X100068190Y-125214095D01*
X100068190Y-125118857D01*
X100115809Y-125023619D01*
X100163428Y-124976000D01*
X100258666Y-124928380D01*
X100496761Y-124928380D01*
X100639619Y-124976000D01*
X101068190Y-125928380D02*
X101068190Y-124928380D01*
X102068190Y-124976000D02*
X101972952Y-124928380D01*
X101830095Y-124928380D01*
X101687238Y-124976000D01*
X101592000Y-125071238D01*
X101544380Y-125166476D01*
X101496761Y-125356952D01*
X101496761Y-125499809D01*
X101544380Y-125690285D01*
X101592000Y-125785523D01*
X101687238Y-125880761D01*
X101830095Y-125928380D01*
X101925333Y-125928380D01*
X102068190Y-125880761D01*
X102115809Y-125833142D01*
X102115809Y-125499809D01*
X101925333Y-125499809D01*
X103378095Y-119896000D02*
X103282857Y-119848380D01*
X103140000Y-119848380D01*
X102997142Y-119896000D01*
X102901904Y-119991238D01*
X102854285Y-120086476D01*
X102806666Y-120276952D01*
X102806666Y-120419809D01*
X102854285Y-120610285D01*
X102901904Y-120705523D01*
X102997142Y-120800761D01*
X103140000Y-120848380D01*
X103235238Y-120848380D01*
X103378095Y-120800761D01*
X103425714Y-120753142D01*
X103425714Y-120419809D01*
X103235238Y-120419809D01*
X103854285Y-120848380D02*
X103854285Y-119848380D01*
X104425714Y-120848380D01*
X104425714Y-119848380D01*
X104901904Y-120848380D02*
X104901904Y-119848380D01*
X105140000Y-119848380D01*
X105282857Y-119896000D01*
X105378095Y-119991238D01*
X105425714Y-120086476D01*
X105473333Y-120276952D01*
X105473333Y-120419809D01*
X105425714Y-120610285D01*
X105378095Y-120705523D01*
X105282857Y-120800761D01*
X105140000Y-120848380D01*
X104901904Y-120848380D01*
X113522285Y-110307428D02*
X114284190Y-110307428D01*
X113903238Y-110688380D02*
X113903238Y-109926476D01*
X115236571Y-109688380D02*
X114760380Y-109688380D01*
X114712761Y-110164571D01*
X114760380Y-110116952D01*
X114855619Y-110069333D01*
X115093714Y-110069333D01*
X115188952Y-110116952D01*
X115236571Y-110164571D01*
X115284190Y-110259809D01*
X115284190Y-110497904D01*
X115236571Y-110593142D01*
X115188952Y-110640761D01*
X115093714Y-110688380D01*
X114855619Y-110688380D01*
X114760380Y-110640761D01*
X114712761Y-110593142D01*
X115569904Y-109688380D02*
X115903238Y-110688380D01*
X116236571Y-109688380D01*
X83463142Y-113736380D02*
X83463142Y-112736380D01*
X83701238Y-112736380D01*
X83844095Y-112784000D01*
X83939333Y-112879238D01*
X83986952Y-112974476D01*
X84034571Y-113164952D01*
X84034571Y-113307809D01*
X83986952Y-113498285D01*
X83939333Y-113593523D01*
X83844095Y-113688761D01*
X83701238Y-113736380D01*
X83463142Y-113736380D01*
X84415523Y-113450666D02*
X84891714Y-113450666D01*
X84320285Y-113736380D02*
X84653619Y-112736380D01*
X84986952Y-113736380D01*
X85177428Y-112736380D02*
X85748857Y-112736380D01*
X85463142Y-113736380D02*
X85463142Y-112736380D01*
X86034571Y-113450666D02*
X86510761Y-113450666D01*
X85939333Y-113736380D02*
X86272666Y-112736380D01*
X86606000Y-113736380D01*
X87701238Y-113736380D02*
X87701238Y-112736380D01*
X88177428Y-113736380D02*
X88177428Y-112736380D01*
X88748857Y-113736380D01*
X88748857Y-112736380D01*
X83550285Y-110815428D02*
X84312190Y-110815428D01*
X83931238Y-111196380D02*
X83931238Y-110434476D01*
X85264571Y-110196380D02*
X84788380Y-110196380D01*
X84740761Y-110672571D01*
X84788380Y-110624952D01*
X84883619Y-110577333D01*
X85121714Y-110577333D01*
X85216952Y-110624952D01*
X85264571Y-110672571D01*
X85312190Y-110767809D01*
X85312190Y-111005904D01*
X85264571Y-111101142D01*
X85216952Y-111148761D01*
X85121714Y-111196380D01*
X84883619Y-111196380D01*
X84788380Y-111148761D01*
X84740761Y-111101142D01*
X85597904Y-110196380D02*
X85931238Y-111196380D01*
X86264571Y-110196380D01*
X100068190Y-125880761D02*
X100211047Y-125928380D01*
X100449142Y-125928380D01*
X100544380Y-125880761D01*
X100592000Y-125833142D01*
X100639619Y-125737904D01*
X100639619Y-125642666D01*
X100592000Y-125547428D01*
X100544380Y-125499809D01*
X100449142Y-125452190D01*
X100258666Y-125404571D01*
X100163428Y-125356952D01*
X100115809Y-125309333D01*
X100068190Y-125214095D01*
X100068190Y-125118857D01*
X100115809Y-125023619D01*
X100163428Y-124976000D01*
X100258666Y-124928380D01*
X100496761Y-124928380D01*
X100639619Y-124976000D01*
X101068190Y-125928380D02*
X101068190Y-124928380D01*
X102068190Y-124976000D02*
X101972952Y-124928380D01*
X101830095Y-124928380D01*
X101687238Y-124976000D01*
X101592000Y-125071238D01*
X101544380Y-125166476D01*
X101496761Y-125356952D01*
X101496761Y-125499809D01*
X101544380Y-125690285D01*
X101592000Y-125785523D01*
X101687238Y-125880761D01*
X101830095Y-125928380D01*
X101925333Y-125928380D01*
X102068190Y-125880761D01*
X102115809Y-125833142D01*
X102115809Y-125499809D01*
X101925333Y-125499809D01*
X83812190Y-118768761D02*
X83955047Y-118816380D01*
X84193142Y-118816380D01*
X84288380Y-118768761D01*
X84336000Y-118721142D01*
X84383619Y-118625904D01*
X84383619Y-118530666D01*
X84336000Y-118435428D01*
X84288380Y-118387809D01*
X84193142Y-118340190D01*
X84002666Y-118292571D01*
X83907428Y-118244952D01*
X83859809Y-118197333D01*
X83812190Y-118102095D01*
X83812190Y-118006857D01*
X83859809Y-117911619D01*
X83907428Y-117864000D01*
X84002666Y-117816380D01*
X84240761Y-117816380D01*
X84383619Y-117864000D01*
X84812190Y-118816380D02*
X84812190Y-117816380D01*
X85812190Y-117864000D02*
X85716952Y-117816380D01*
X85574095Y-117816380D01*
X85431238Y-117864000D01*
X85336000Y-117959238D01*
X85288380Y-118054476D01*
X85240761Y-118244952D01*
X85240761Y-118387809D01*
X85288380Y-118578285D01*
X85336000Y-118673523D01*
X85431238Y-118768761D01*
X85574095Y-118816380D01*
X85669333Y-118816380D01*
X85812190Y-118768761D01*
X85859809Y-118721142D01*
X85859809Y-118387809D01*
X85669333Y-118387809D01*
X84074095Y-115324000D02*
X83978857Y-115276380D01*
X83836000Y-115276380D01*
X83693142Y-115324000D01*
X83597904Y-115419238D01*
X83550285Y-115514476D01*
X83502666Y-115704952D01*
X83502666Y-115847809D01*
X83550285Y-116038285D01*
X83597904Y-116133523D01*
X83693142Y-116228761D01*
X83836000Y-116276380D01*
X83931238Y-116276380D01*
X84074095Y-116228761D01*
X84121714Y-116181142D01*
X84121714Y-115847809D01*
X83931238Y-115847809D01*
X84550285Y-116276380D02*
X84550285Y-115276380D01*
X85121714Y-116276380D01*
X85121714Y-115276380D01*
X85597904Y-116276380D02*
X85597904Y-115276380D01*
X85836000Y-115276380D01*
X85978857Y-115324000D01*
X86074095Y-115419238D01*
X86121714Y-115514476D01*
X86169333Y-115704952D01*
X86169333Y-115847809D01*
X86121714Y-116038285D01*
X86074095Y-116133523D01*
X85978857Y-116228761D01*
X85836000Y-116276380D01*
X85597904Y-116276380D01*
X97774285Y-120467428D02*
X98536190Y-120467428D01*
X98155238Y-120848380D02*
X98155238Y-120086476D01*
X99488571Y-119848380D02*
X99012380Y-119848380D01*
X98964761Y-120324571D01*
X99012380Y-120276952D01*
X99107619Y-120229333D01*
X99345714Y-120229333D01*
X99440952Y-120276952D01*
X99488571Y-120324571D01*
X99536190Y-120419809D01*
X99536190Y-120657904D01*
X99488571Y-120753142D01*
X99440952Y-120800761D01*
X99345714Y-120848380D01*
X99107619Y-120848380D01*
X99012380Y-120800761D01*
X98964761Y-120753142D01*
X99821904Y-119848380D02*
X100155238Y-120848380D01*
X100488571Y-119848380D01*
%TO.C,C1*%
X77946603Y-87990245D02*
X78011652Y-87972815D01*
X78159180Y-88003005D01*
X78241658Y-88050624D01*
X78341567Y-88163291D01*
X78376426Y-88293389D01*
X78370047Y-88399677D01*
X78316048Y-88588444D01*
X78244619Y-88712162D01*
X78108142Y-88853310D01*
X78019283Y-88911979D01*
X77889186Y-88946838D01*
X77741658Y-88916649D01*
X77659180Y-88869030D01*
X77559271Y-88756362D01*
X77541842Y-88691313D01*
X77169436Y-87431576D02*
X77664308Y-87717290D01*
X77416872Y-87574433D02*
X76916872Y-88440459D01*
X77070779Y-88364360D01*
X77200877Y-88329500D01*
X77307165Y-88335880D01*
%TO.C,D3*%
X127760821Y-98711018D02*
X126894795Y-99211018D01*
X126775747Y-99004822D01*
X126745558Y-98857294D01*
X126780418Y-98727197D01*
X126839087Y-98638338D01*
X126980235Y-98501861D01*
X127103952Y-98430432D01*
X127292719Y-98376434D01*
X127399007Y-98370054D01*
X127529105Y-98404913D01*
X127641773Y-98504822D01*
X127760821Y-98711018D01*
X126442414Y-98427471D02*
X126132890Y-97891360D01*
X126629471Y-97989559D01*
X126558043Y-97865842D01*
X126551663Y-97759553D01*
X126569093Y-97694505D01*
X126627762Y-97605646D01*
X126833959Y-97486599D01*
X126940247Y-97480219D01*
X127005295Y-97497649D01*
X127094154Y-97556318D01*
X127237011Y-97803754D01*
X127243391Y-97910042D01*
X127225961Y-97975091D01*
X131435039Y-90368606D02*
X131720753Y-90863478D01*
X131577896Y-90616042D02*
X130711870Y-91116042D01*
X130883207Y-91127092D01*
X131013305Y-91161952D01*
X131102163Y-91220621D01*
%TO.C,C4*%
X127960351Y-132591127D02*
X128025400Y-132573697D01*
X128172928Y-132603887D01*
X128255406Y-132651506D01*
X128355315Y-132764173D01*
X128390174Y-132894271D01*
X128383795Y-133000559D01*
X128329796Y-133189326D01*
X128258367Y-133313044D01*
X128121890Y-133454192D01*
X128033031Y-133512861D01*
X127902934Y-133547720D01*
X127755406Y-133517531D01*
X127672928Y-133469912D01*
X127573019Y-133357244D01*
X127555590Y-133292195D01*
X126932330Y-132657427D02*
X127265663Y-132080077D01*
X126948050Y-133106389D02*
X127511389Y-132606847D01*
X126975278Y-132297324D01*
%TO.C,J3*%
X96182380Y-123523333D02*
X96896666Y-123523333D01*
X97039523Y-123570952D01*
X97134761Y-123666190D01*
X97182380Y-123809047D01*
X97182380Y-123904285D01*
X96182380Y-123142380D02*
X96182380Y-122523333D01*
X96563333Y-122856666D01*
X96563333Y-122713809D01*
X96610952Y-122618571D01*
X96658571Y-122570952D01*
X96753809Y-122523333D01*
X96991904Y-122523333D01*
X97087142Y-122570952D01*
X97134761Y-122618571D01*
X97182380Y-122713809D01*
X97182380Y-122999523D01*
X97134761Y-123094761D01*
X97087142Y-123142380D01*
%TO.C,D4*%
X130016995Y-129977161D02*
X129150970Y-129477161D01*
X129270017Y-129270965D01*
X129382685Y-129171056D01*
X129512783Y-129136197D01*
X129619071Y-129142576D01*
X129807838Y-129196575D01*
X129931556Y-129268004D01*
X130072704Y-129404481D01*
X130131373Y-129493340D01*
X130166232Y-129623437D01*
X130136043Y-129770965D01*
X130016995Y-129977161D01*
X130153931Y-128406649D02*
X130731281Y-128739982D01*
X129704969Y-128422369D02*
X130204511Y-128985708D01*
X130514034Y-128449597D01*
X130099348Y-133634521D02*
X129813634Y-134129393D01*
X129956491Y-133881957D02*
X129090465Y-133381957D01*
X129166564Y-133535864D01*
X129201424Y-133665962D01*
X129195044Y-133772250D01*
%TO.C,C2*%
X109413142Y-79338666D02*
X109460761Y-79386285D01*
X109508380Y-79529142D01*
X109508380Y-79624380D01*
X109460761Y-79767238D01*
X109365523Y-79862476D01*
X109270285Y-79910095D01*
X109079809Y-79957714D01*
X108936952Y-79957714D01*
X108746476Y-79910095D01*
X108651238Y-79862476D01*
X108556000Y-79767238D01*
X108508380Y-79624380D01*
X108508380Y-79529142D01*
X108556000Y-79386285D01*
X108603619Y-79338666D01*
X108603619Y-78957714D02*
X108556000Y-78910095D01*
X108508380Y-78814857D01*
X108508380Y-78576761D01*
X108556000Y-78481523D01*
X108603619Y-78433904D01*
X108698857Y-78386285D01*
X108794095Y-78386285D01*
X108936952Y-78433904D01*
X109508380Y-79005333D01*
X109508380Y-78386285D01*
%TO.C,J1*%
X80946666Y-107866380D02*
X80946666Y-108580666D01*
X80899047Y-108723523D01*
X80803809Y-108818761D01*
X80660952Y-108866380D01*
X80565714Y-108866380D01*
X81946666Y-108866380D02*
X81375238Y-108866380D01*
X81660952Y-108866380D02*
X81660952Y-107866380D01*
X81565714Y-108009238D01*
X81470476Y-108104476D01*
X81375238Y-108152095D01*
%TO.C,D5*%
X100861904Y-146482380D02*
X100861904Y-145482380D01*
X101100000Y-145482380D01*
X101242857Y-145530000D01*
X101338095Y-145625238D01*
X101385714Y-145720476D01*
X101433333Y-145910952D01*
X101433333Y-146053809D01*
X101385714Y-146244285D01*
X101338095Y-146339523D01*
X101242857Y-146434761D01*
X101100000Y-146482380D01*
X100861904Y-146482380D01*
X102338095Y-145482380D02*
X101861904Y-145482380D01*
X101814285Y-145958571D01*
X101861904Y-145910952D01*
X101957142Y-145863333D01*
X102195238Y-145863333D01*
X102290476Y-145910952D01*
X102338095Y-145958571D01*
X102385714Y-146053809D01*
X102385714Y-146291904D01*
X102338095Y-146387142D01*
X102290476Y-146434761D01*
X102195238Y-146482380D01*
X101957142Y-146482380D01*
X101861904Y-146434761D01*
X101814285Y-146387142D01*
X97735714Y-148382380D02*
X97164285Y-148382380D01*
X97450000Y-148382380D02*
X97450000Y-147382380D01*
X97354761Y-147525238D01*
X97259523Y-147620476D01*
X97164285Y-147668095D01*
%TO.C,C5*%
X96115142Y-147994666D02*
X96162761Y-148042285D01*
X96210380Y-148185142D01*
X96210380Y-148280380D01*
X96162761Y-148423238D01*
X96067523Y-148518476D01*
X95972285Y-148566095D01*
X95781809Y-148613714D01*
X95638952Y-148613714D01*
X95448476Y-148566095D01*
X95353238Y-148518476D01*
X95258000Y-148423238D01*
X95210380Y-148280380D01*
X95210380Y-148185142D01*
X95258000Y-148042285D01*
X95305619Y-147994666D01*
X95210380Y-147089904D02*
X95210380Y-147566095D01*
X95686571Y-147613714D01*
X95638952Y-147566095D01*
X95591333Y-147470857D01*
X95591333Y-147232761D01*
X95638952Y-147137523D01*
X95686571Y-147089904D01*
X95781809Y-147042285D01*
X96019904Y-147042285D01*
X96115142Y-147089904D01*
X96162761Y-147137523D01*
X96210380Y-147232761D01*
X96210380Y-147470857D01*
X96162761Y-147566095D01*
X96115142Y-147613714D01*
%TO.C,D6*%
X78230821Y-136049018D02*
X77364795Y-136549018D01*
X77245747Y-136342822D01*
X77215558Y-136195294D01*
X77250418Y-136065197D01*
X77309087Y-135976338D01*
X77450235Y-135839861D01*
X77573952Y-135768432D01*
X77762719Y-135714434D01*
X77869007Y-135708054D01*
X77999105Y-135742913D01*
X78111773Y-135842822D01*
X78230821Y-136049018D01*
X76650509Y-135311839D02*
X76745747Y-135476796D01*
X76834606Y-135535465D01*
X76899655Y-135552895D01*
X77070992Y-135563945D01*
X77259758Y-135509946D01*
X77589673Y-135319470D01*
X77648342Y-135230612D01*
X77665772Y-135165563D01*
X77659392Y-135059275D01*
X77564154Y-134894318D01*
X77475295Y-134835649D01*
X77410247Y-134818219D01*
X77303959Y-134824599D01*
X77097762Y-134943646D01*
X77039093Y-135032505D01*
X77021663Y-135097553D01*
X77028043Y-135203842D01*
X77123281Y-135368799D01*
X77212139Y-135427468D01*
X77277188Y-135444898D01*
X77383476Y-135438518D01*
X73582275Y-139048378D02*
X73867989Y-139543250D01*
X73725132Y-139295814D02*
X72859106Y-139795814D01*
X73030443Y-139806864D01*
X73160541Y-139841724D01*
X73249399Y-139900393D01*
%TO.C,C3*%
X130615956Y-101611628D02*
X130598527Y-101676676D01*
X130498618Y-101789344D01*
X130416140Y-101836963D01*
X130268612Y-101867153D01*
X130138514Y-101832293D01*
X130049656Y-101773624D01*
X129913179Y-101632476D01*
X129841750Y-101508758D01*
X129787751Y-101319992D01*
X129781372Y-101213704D01*
X129816231Y-101083606D01*
X129916140Y-100970938D01*
X129998618Y-100923319D01*
X130146146Y-100893130D01*
X130211194Y-100910559D01*
X130452251Y-100661414D02*
X130988362Y-100351890D01*
X130890163Y-100848471D01*
X131013880Y-100777043D01*
X131120169Y-100770663D01*
X131185217Y-100788093D01*
X131274076Y-100846762D01*
X131393123Y-101052959D01*
X131399503Y-101159247D01*
X131382073Y-101224295D01*
X131323404Y-101313154D01*
X131075968Y-101456011D01*
X130969680Y-101462391D01*
X130904631Y-101444961D01*
%TO.C,J2*%
X117776666Y-107612380D02*
X117776666Y-108326666D01*
X117729047Y-108469523D01*
X117633809Y-108564761D01*
X117490952Y-108612380D01*
X117395714Y-108612380D01*
X118205238Y-107707619D02*
X118252857Y-107660000D01*
X118348095Y-107612380D01*
X118586190Y-107612380D01*
X118681428Y-107660000D01*
X118729047Y-107707619D01*
X118776666Y-107802857D01*
X118776666Y-107898095D01*
X118729047Y-108040952D01*
X118157619Y-108612380D01*
X118776666Y-108612380D01*
%TO.C,D1*%
X72158726Y-101195399D02*
X71292701Y-100695399D01*
X71411748Y-100489203D01*
X71524416Y-100389294D01*
X71654514Y-100354435D01*
X71760802Y-100360814D01*
X71949569Y-100414813D01*
X72073287Y-100486242D01*
X72214435Y-100622719D01*
X72273104Y-100711578D01*
X72307963Y-100841675D01*
X72277774Y-100989203D01*
X72158726Y-101195399D01*
X72920631Y-99875741D02*
X72634917Y-100370613D01*
X72777774Y-100123177D02*
X71911748Y-99623177D01*
X71987847Y-99777084D01*
X72022707Y-99907182D01*
X72016327Y-100013470D01*
X69463989Y-97260759D02*
X69178275Y-97755631D01*
X69321132Y-97508195D02*
X68455106Y-97008195D01*
X68531205Y-97162102D01*
X68566065Y-97292200D01*
X68559685Y-97398488D01*
%TO.C,D2*%
X96543904Y-80716380D02*
X96543904Y-79716380D01*
X96782000Y-79716380D01*
X96924857Y-79764000D01*
X97020095Y-79859238D01*
X97067714Y-79954476D01*
X97115333Y-80144952D01*
X97115333Y-80287809D01*
X97067714Y-80478285D01*
X97020095Y-80573523D01*
X96924857Y-80668761D01*
X96782000Y-80716380D01*
X96543904Y-80716380D01*
X97496285Y-79811619D02*
X97543904Y-79764000D01*
X97639142Y-79716380D01*
X97877238Y-79716380D01*
X97972476Y-79764000D01*
X98020095Y-79811619D01*
X98067714Y-79906857D01*
X98067714Y-80002095D01*
X98020095Y-80144952D01*
X97448666Y-80716380D01*
X98067714Y-80716380D01*
X98079714Y-78024380D02*
X97508285Y-78024380D01*
X97794000Y-78024380D02*
X97794000Y-77024380D01*
X97698761Y-77167238D01*
X97603523Y-77262476D01*
X97508285Y-77310095D01*
%TO.C,C6*%
X68786012Y-128220335D02*
X68768583Y-128285383D01*
X68668674Y-128398051D01*
X68586196Y-128445670D01*
X68438668Y-128475860D01*
X68308570Y-128441000D01*
X68219712Y-128382331D01*
X68083235Y-128241183D01*
X68011806Y-128117465D01*
X67957807Y-127928699D01*
X67951428Y-127822411D01*
X67986287Y-127692313D01*
X68086196Y-127579645D01*
X68168674Y-127532026D01*
X68316202Y-127501837D01*
X68381250Y-127519266D01*
X69075939Y-127008216D02*
X68910982Y-127103454D01*
X68852313Y-127192313D01*
X68834883Y-127257362D01*
X68823833Y-127428699D01*
X68877832Y-127617465D01*
X69068308Y-127947380D01*
X69157166Y-128006049D01*
X69222215Y-128023479D01*
X69328503Y-128017099D01*
X69493460Y-127921861D01*
X69552129Y-127833002D01*
X69569559Y-127767954D01*
X69563179Y-127661666D01*
X69444132Y-127455469D01*
X69355273Y-127396800D01*
X69290225Y-127379370D01*
X69183936Y-127385750D01*
X69018979Y-127480988D01*
X68960310Y-127569846D01*
X68942880Y-127634895D01*
X68949260Y-127741183D01*
D11*
%TO.C,D3*%
X132057929Y-90916245D02*
X135707929Y-97238231D01*
X127294789Y-93666245D02*
X130944789Y-99988231D01*
X130944789Y-99988231D02*
X131940718Y-99413231D01*
%TO.C,J3*%
X100330000Y-121860000D02*
X105470000Y-121860000D01*
X100330000Y-124520000D02*
X100330000Y-121860000D01*
X99060000Y-124520000D02*
X97730000Y-124520000D01*
X105470000Y-124520000D02*
X105470000Y-121860000D01*
X97730000Y-124520000D02*
X97730000Y-123190000D01*
X100330000Y-124520000D02*
X105470000Y-124520000D01*
%TO.C,D4*%
X133581929Y-135397755D02*
X137231929Y-129075769D01*
X137231929Y-129075769D02*
X136236000Y-128500769D01*
X128818789Y-132647755D02*
X132468789Y-126325769D01*
%TO.C,J1*%
X79950000Y-112014000D02*
X82610000Y-112014000D01*
X79950000Y-119694000D02*
X82610000Y-119694000D01*
X79950000Y-109414000D02*
X81280000Y-109414000D01*
X79950000Y-112014000D02*
X79950000Y-119694000D01*
X79950000Y-110744000D02*
X79950000Y-109414000D01*
X82610000Y-112014000D02*
X82610000Y-119694000D01*
%TO.C,D5*%
X97950000Y-146780000D02*
X105250000Y-146780000D01*
X97950000Y-152280000D02*
X105250000Y-152280000D01*
X105250000Y-152280000D02*
X105250000Y-151130000D01*
%TO.C,D6*%
X72087430Y-139663993D02*
X68437430Y-133342007D01*
X73200570Y-130592007D02*
X72204641Y-131167007D01*
X76850570Y-136913993D02*
X73200570Y-130592007D01*
%TO.C,J2*%
X116780000Y-110490000D02*
X116780000Y-109160000D01*
X119440000Y-111760000D02*
X119440000Y-116900000D01*
X116780000Y-111760000D02*
X119440000Y-111760000D01*
X116780000Y-111760000D02*
X116780000Y-116900000D01*
X116780000Y-116900000D02*
X119440000Y-116900000D01*
X116780000Y-109160000D02*
X118110000Y-109160000D01*
%TO.C,D1*%
X68183430Y-96273993D02*
X71833430Y-89952007D01*
X76596570Y-92702007D02*
X75600641Y-92127007D01*
X72946570Y-99023993D02*
X76596570Y-92702007D01*
%TO.C,D2*%
X98294000Y-81922000D02*
X105594000Y-81922000D01*
X105594000Y-81922000D02*
X105594000Y-80772000D01*
X98294000Y-76422000D02*
X105594000Y-76422000D01*
%TD*%
M02*
