%TF.GenerationSoftware,KiCad,Pcbnew,(6.0.4)*%
%TF.CreationDate,2022-04-25T15:33:24+02:00*%
%TF.ProjectId,HEX_PCB,4845585f-5043-4422-9e6b-696361645f70,rev?*%
%TF.SameCoordinates,Original*%
%TF.FileFunction,Soldermask,Top*%
%TF.FilePolarity,Negative*%
%FSLAX46Y46*%
G04 Gerber Fmt 4.6, Leading zero omitted, Abs format (unit mm)*
G04 Created by KiCad (PCBNEW (6.0.4)) date 2022-04-25 15:33:24*
%MOMM*%
%LPD*%
G01*
G04 APERTURE LIST*
G04 Aperture macros list*
%AMRoundRect*
0 Rectangle with rounded corners*
0 $1 Rounding radius*
0 $2 $3 $4 $5 $6 $7 $8 $9 X,Y pos of 4 corners*
0 Add a 4 corners polygon primitive as box body*
4,1,4,$2,$3,$4,$5,$6,$7,$8,$9,$2,$3,0*
0 Add four circle primitives for the rounded corners*
1,1,$1+$1,$2,$3*
1,1,$1+$1,$4,$5*
1,1,$1+$1,$6,$7*
1,1,$1+$1,$8,$9*
0 Add four rect primitives between the rounded corners*
20,1,$1+$1,$2,$3,$4,$5,0*
20,1,$1+$1,$4,$5,$6,$7,0*
20,1,$1+$1,$6,$7,$8,$9,0*
20,1,$1+$1,$8,$9,$2,$3,0*%
%AMRotRect*
0 Rectangle, with rotation*
0 The origin of the aperture is its center*
0 $1 length*
0 $2 width*
0 $3 Rotation angle, in degrees counterclockwise*
0 Add horizontal line*
21,1,$1,$2,0,0,$3*%
G04 Aperture macros list end*
%ADD10RoundRect,0.100000X-0.162583X-0.021603X0.062583X-0.151603X0.162583X0.021603X-0.062583X0.151603X0*%
%ADD11RotRect,1.500000X1.000000X300.000000*%
%ADD12R,1.700000X1.700000*%
%ADD13O,1.700000X1.700000*%
%ADD14RotRect,1.500000X1.000000X60.000000*%
%ADD15RoundRect,0.100000X-0.100000X0.130000X-0.100000X-0.130000X0.100000X-0.130000X0.100000X0.130000X0*%
%ADD16R,1.500000X1.000000*%
%ADD17RotRect,1.500000X1.000000X120.000000*%
%ADD18RoundRect,0.100000X-0.062583X-0.151603X0.162583X-0.021603X0.062583X0.151603X-0.162583X0.021603X0*%
G04 APERTURE END LIST*
D10*
%TO.C,C1*%
X75137744Y-88834000D03*
X75692000Y-89154000D03*
%TD*%
D11*
%TO.C,D3*%
X131662000Y-92530476D03*
X128890718Y-94130476D03*
X131340718Y-98374000D03*
X134112000Y-96774000D03*
%TD*%
D10*
%TO.C,C4*%
X130278872Y-135222000D03*
X130833128Y-135542000D03*
%TD*%
D12*
%TO.C,J3*%
X99060000Y-123190000D03*
D13*
X101600000Y-123190000D03*
X104140000Y-123190000D03*
%TD*%
D14*
%TO.C,D4*%
X130414718Y-132183524D03*
X133186000Y-133783524D03*
X135636000Y-129540000D03*
X132864718Y-127940000D03*
%TD*%
D15*
%TO.C,C2*%
X107024000Y-78852000D03*
X107024000Y-79492000D03*
%TD*%
D12*
%TO.C,J1*%
X81280000Y-110744000D03*
D13*
X81280000Y-113284000D03*
X81280000Y-115824000D03*
X81280000Y-118364000D03*
%TD*%
D16*
%TO.C,D5*%
X99150000Y-147930000D03*
X99150000Y-151130000D03*
X104050000Y-151130000D03*
X104050000Y-147930000D03*
%TD*%
D15*
%TO.C,C5*%
X94996000Y-148712000D03*
X94996000Y-149352000D03*
%TD*%
D17*
%TO.C,D6*%
X72483359Y-138049762D03*
X75254641Y-136449762D03*
X72804641Y-132206238D03*
X70033359Y-133806238D03*
%TD*%
D18*
%TO.C,C3*%
X134044093Y-99220000D03*
X134598349Y-98900000D03*
%TD*%
D12*
%TO.C,J2*%
X118110000Y-110490000D03*
D13*
X118110000Y-113030000D03*
X118110000Y-115570000D03*
%TD*%
D14*
%TO.C,D1*%
X69779359Y-95809762D03*
X72550641Y-97409762D03*
X75000641Y-93166238D03*
X72229359Y-91566238D03*
%TD*%
D16*
%TO.C,D2*%
X99494000Y-77572000D03*
X99494000Y-80772000D03*
X104394000Y-80772000D03*
X104394000Y-77572000D03*
%TD*%
D18*
%TO.C,C6*%
X69363651Y-129527500D03*
X69917907Y-129207500D03*
%TD*%
M02*
