M48
; DRILL file {KiCad (5.1.9)-1} date 04/05/22 19:21:54
; FORMAT={-:-/ absolute / metric / decimal}
; #@! TF.CreationDate,2022-04-05T19:21:54+02:00
; #@! TF.GenerationSoftware,Kicad,Pcbnew,(5.1.9)-1
; #@! TF.FileFunction,Plated,1,2,PTH
FMAT,2
METRIC
T1C0.400
T2C0.800
T3C0.820
T4C1.000
T5C1.040
T6C1.118
T7C1.200
T8C1.300
T9C1.520
%
G90
G05
T1
X107.95Y-66.04
X116.84Y-69.85
X138.43Y-57.15
X140.97Y-57.15
X143.51Y-57.15
X146.05Y-57.15
X148.59Y-57.15
X151.13Y-57.15
X153.67Y-57.15
X153.67Y-66.04
X190.5Y-57.15
X190.5Y-100.33
X191.77Y-57.15
X193.04Y-57.15
X195.58Y-57.15
X196.85Y-114.3
X198.12Y-57.15
X200.66Y-57.15
T2
X58.42Y-104.14
X63.42Y-104.14
T3
X39.37Y-54.485
X39.37Y-62.355
X41.91Y-54.485
X41.91Y-62.355
X44.45Y-54.485
X44.45Y-62.355
X46.99Y-54.485
X46.99Y-62.355
X49.53Y-54.485
X49.53Y-62.355
X52.07Y-54.485
X52.07Y-62.355
X54.61Y-54.485
X54.61Y-62.355
X57.15Y-54.485
X57.15Y-62.355
X59.69Y-54.485
X59.69Y-62.355
X62.23Y-54.485
X62.23Y-62.355
X64.77Y-54.485
X64.77Y-62.355
X67.31Y-54.485
X67.31Y-62.355
X69.85Y-54.485
X69.85Y-62.355
X72.39Y-54.485
X72.39Y-62.355
X86.36Y-54.485
X86.36Y-62.355
X88.9Y-54.485
X88.9Y-62.355
X91.44Y-54.485
X91.44Y-62.355
X93.98Y-54.485
X93.98Y-62.355
X96.52Y-54.485
X96.52Y-62.355
X99.06Y-54.485
X99.06Y-62.355
X101.6Y-54.485
X101.6Y-62.355
X104.14Y-54.485
X104.14Y-62.355
X106.68Y-54.485
X106.68Y-62.355
X109.22Y-54.485
X109.22Y-62.355
X111.76Y-54.485
X111.76Y-62.355
X114.3Y-54.485
X114.3Y-62.355
X116.84Y-54.485
X116.84Y-62.355
X119.38Y-54.485
X119.38Y-62.355
X138.43Y-54.485
X138.43Y-62.355
X140.97Y-54.485
X140.97Y-62.355
X143.51Y-54.485
X143.51Y-62.355
X146.05Y-54.485
X146.05Y-62.355
X148.59Y-54.485
X148.59Y-62.355
X151.13Y-54.485
X151.13Y-62.355
X153.67Y-54.485
X153.67Y-62.355
X156.21Y-54.485
X156.21Y-62.355
X158.75Y-54.485
X158.75Y-62.355
X161.29Y-54.485
X161.29Y-62.355
X163.83Y-54.485
X163.83Y-62.355
X166.37Y-54.485
X166.37Y-62.355
X168.91Y-54.485
X168.91Y-62.355
X171.45Y-54.485
X171.45Y-62.355
X185.42Y-54.485
X185.42Y-62.355
X187.96Y-54.485
X187.96Y-62.355
X190.5Y-54.485
X190.5Y-62.355
X193.04Y-54.485
X193.04Y-62.355
X195.58Y-54.485
X195.58Y-62.355
X198.12Y-54.485
X198.12Y-62.355
X200.66Y-54.485
X200.66Y-62.355
X203.2Y-54.485
X203.2Y-62.355
X205.74Y-54.485
X205.74Y-62.355
X208.28Y-54.485
X208.28Y-62.355
X210.82Y-54.485
X210.82Y-62.355
X213.36Y-54.485
X213.36Y-62.355
X215.9Y-54.485
X215.9Y-62.355
X218.44Y-54.485
X218.44Y-62.355
T4
X36.83Y-34.29
X39.37Y-34.29
X41.91Y-34.29
X44.45Y-34.29
X46.99Y-34.29
X49.53Y-34.29
X52.07Y-34.29
X54.61Y-34.29
X57.15Y-34.29
X59.69Y-34.29
X62.23Y-34.29
X64.77Y-34.29
X67.31Y-34.29
X69.85Y-34.29
X72.39Y-34.29
X74.93Y-34.29
X83.82Y-34.29
X86.36Y-34.29
X88.9Y-34.29
X91.44Y-34.29
X93.98Y-34.29
X96.52Y-34.29
X99.06Y-34.29
X101.6Y-34.29
X104.14Y-34.29
X105.41Y-139.7
X106.68Y-34.29
X107.95Y-139.7
X109.22Y-34.29
X110.49Y-139.7
X111.76Y-34.29
X113.03Y-139.7
X114.3Y-34.29
X115.57Y-139.7
X116.84Y-34.29
X118.11Y-139.7
X119.38Y-34.29
X120.65Y-139.7
X121.92Y-34.29
X123.19Y-139.7
X125.73Y-139.7
X128.27Y-139.7
X134.62Y-34.29
X137.16Y-34.29
X139.7Y-34.29
X142.24Y-34.29
X144.78Y-34.29
X147.32Y-34.29
X149.86Y-34.29
X152.4Y-34.29
X154.94Y-34.29
X157.48Y-34.29
X160.02Y-34.29
X162.56Y-34.29
X165.1Y-34.29
X167.64Y-34.29
X170.18Y-34.29
X172.72Y-34.29
X182.88Y-34.29
X185.42Y-34.29
X187.96Y-34.29
X190.5Y-34.29
X193.04Y-34.29
X195.58Y-34.29
X198.12Y-34.29
X200.66Y-34.29
X203.2Y-34.29
X205.74Y-34.29
X208.28Y-34.29
X210.82Y-34.29
X213.36Y-34.29
X215.9Y-34.29
X218.44Y-34.29
X220.98Y-34.29
T5
X98.35Y-88.205
X98.35Y-113.605
X100.89Y-88.205
X100.89Y-113.605
X103.43Y-88.205
X103.43Y-113.605
X105.97Y-88.205
X105.97Y-113.605
X108.51Y-88.205
X108.51Y-113.605
X111.05Y-88.205
X111.05Y-113.605
X113.59Y-88.205
X113.59Y-113.605
X116.13Y-88.205
X116.13Y-113.605
X118.67Y-88.205
X118.67Y-113.605
X121.21Y-88.205
X121.21Y-113.605
X123.75Y-88.205
X123.75Y-113.605
X126.29Y-88.205
X126.29Y-113.605
X128.83Y-88.205
X128.83Y-113.605
X131.37Y-88.205
X131.37Y-113.605
X133.91Y-88.205
X133.91Y-113.605
X136.45Y-88.205
X136.45Y-113.605
X138.99Y-88.205
X138.99Y-113.605
X141.53Y-88.205
X141.53Y-113.605
X144.07Y-88.205
X144.07Y-113.605
T6
X177.8Y-102.87
X177.8Y-105.41
X177.8Y-107.95
X177.8Y-110.49
X177.8Y-113.03
X177.8Y-115.57
X177.8Y-118.11
X185.42Y-102.87
X185.42Y-105.41
X185.42Y-107.95
X185.42Y-110.49
X185.42Y-113.03
X185.42Y-115.57
X185.42Y-118.11
T7
X54.61Y-91.44
X64.77Y-91.44
T8
X58.42Y-114.3
X58.42Y-136.8
T9
X40.64Y-72.39
X40.64Y-77.47
X40.64Y-90.17
X40.64Y-95.25
X40.64Y-107.95
X40.64Y-113.03
X40.64Y-125.73
X40.64Y-130.81
X58.42Y-148.59
X63.5Y-148.59
X212.09Y-80.01
X212.09Y-85.09
X212.09Y-90.17
X212.09Y-97.79
X212.09Y-102.87
X212.09Y-107.95
X212.09Y-115.57
X212.09Y-120.65
X212.09Y-125.73
X212.09Y-133.35
X212.09Y-138.43
X212.09Y-143.51
T0
M30
