%TF.GenerationSoftware,KiCad,Pcbnew,(5.1.9)-1*%
%TF.CreationDate,2022-04-05T19:21:43+02:00*%
%TF.ProjectId,Hexagon_Desk,48657861-676f-46e5-9f44-65736b2e6b69,rev?*%
%TF.SameCoordinates,Original*%
%TF.FileFunction,Soldermask,Bot*%
%TF.FilePolarity,Negative*%
%FSLAX46Y46*%
G04 Gerber Fmt 4.6, Leading zero omitted, Abs format (unit mm)*
G04 Created by KiCad (PCBNEW (5.1.9)-1) date 2022-04-05 19:21:43*
%MOMM*%
%LPD*%
G01*
G04 APERTURE LIST*
%ADD10C,1.560000*%
%ADD11R,1.560000X1.560000*%
%ADD12O,2.400000X2.400000*%
%ADD13R,2.400000X2.400000*%
%ADD14C,1.600000*%
%ADD15R,1.600000X1.600000*%
%ADD16C,1.230000*%
%ADD17R,1.230000X1.230000*%
%ADD18C,3.200000*%
%ADD19C,1.676400*%
%ADD20R,1.676400X1.676400*%
%ADD21C,3.000000*%
%ADD22R,3.000000X3.000000*%
%ADD23O,1.700000X1.700000*%
%ADD24R,1.700000X1.700000*%
%ADD25C,2.700000*%
G04 APERTURE END LIST*
D10*
%TO.C,U6*%
X144070000Y-88205000D03*
X141530000Y-88205000D03*
X138990000Y-88205000D03*
X136450000Y-88205000D03*
X133910000Y-88205000D03*
X131370000Y-88205000D03*
X128830000Y-88205000D03*
X126290000Y-88205000D03*
X123750000Y-88205000D03*
X121210000Y-88205000D03*
X118670000Y-88205000D03*
X116130000Y-88205000D03*
X113590000Y-88205000D03*
X111050000Y-88205000D03*
X108510000Y-88205000D03*
X105970000Y-88205000D03*
X103430000Y-88205000D03*
X100890000Y-88205000D03*
X98350000Y-88205000D03*
X141530000Y-113605000D03*
X138990000Y-113605000D03*
X136450000Y-113605000D03*
X133910000Y-113605000D03*
X131370000Y-113605000D03*
X128830000Y-113605000D03*
X126290000Y-113605000D03*
X123750000Y-113605000D03*
X121210000Y-113605000D03*
X118670000Y-113605000D03*
X116130000Y-113605000D03*
X113590000Y-113605000D03*
X111050000Y-113605000D03*
X108510000Y-113605000D03*
X105970000Y-113605000D03*
X103430000Y-113605000D03*
X144070000Y-113605000D03*
X100890000Y-113605000D03*
D11*
X98350000Y-113605000D03*
%TD*%
D12*
%TO.C,D0*%
X64770000Y-91440000D03*
D13*
X54610000Y-91440000D03*
%TD*%
D14*
%TO.C,C0*%
X63420000Y-104140000D03*
D15*
X58420000Y-104140000D03*
%TD*%
D16*
%TO.C,U2*%
X39370000Y-54485000D03*
X41910000Y-54485000D03*
X44450000Y-54485000D03*
X46990000Y-54485000D03*
X49530000Y-54485000D03*
X52070000Y-54485000D03*
X54610000Y-54485000D03*
X57150000Y-54485000D03*
X59690000Y-54485000D03*
X62230000Y-54485000D03*
X64770000Y-54485000D03*
X67310000Y-54485000D03*
X69850000Y-54485000D03*
X72390000Y-54485000D03*
X72390000Y-62355000D03*
X69850000Y-62355000D03*
X67310000Y-62355000D03*
X64770000Y-62355000D03*
X62230000Y-62355000D03*
X59690000Y-62355000D03*
X57150000Y-62355000D03*
X54610000Y-62355000D03*
X52070000Y-62355000D03*
X49530000Y-62355000D03*
X46990000Y-62355000D03*
X44450000Y-62355000D03*
X41910000Y-62355000D03*
D17*
X39370000Y-62355000D03*
%TD*%
D18*
%TO.C, *%
X224790000Y-152400000D03*
%TD*%
%TO.C, *%
X33020000Y-152400000D03*
%TD*%
%TO.C, *%
X31750000Y-30480000D03*
%TD*%
%TO.C, *%
X226060000Y-30480000D03*
%TD*%
D16*
%TO.C,U5*%
X185420000Y-54485000D03*
X187960000Y-54485000D03*
X190500000Y-54485000D03*
X193040000Y-54485000D03*
X195580000Y-54485000D03*
X198120000Y-54485000D03*
X200660000Y-54485000D03*
X203200000Y-54485000D03*
X205740000Y-54485000D03*
X208280000Y-54485000D03*
X210820000Y-54485000D03*
X213360000Y-54485000D03*
X215900000Y-54485000D03*
X218440000Y-54485000D03*
X218440000Y-62355000D03*
X215900000Y-62355000D03*
X213360000Y-62355000D03*
X210820000Y-62355000D03*
X208280000Y-62355000D03*
X205740000Y-62355000D03*
X203200000Y-62355000D03*
X200660000Y-62355000D03*
X198120000Y-62355000D03*
X195580000Y-62355000D03*
X193040000Y-62355000D03*
X190500000Y-62355000D03*
X187960000Y-62355000D03*
D17*
X185420000Y-62355000D03*
%TD*%
D16*
%TO.C,U4*%
X138430000Y-54485000D03*
X140970000Y-54485000D03*
X143510000Y-54485000D03*
X146050000Y-54485000D03*
X148590000Y-54485000D03*
X151130000Y-54485000D03*
X153670000Y-54485000D03*
X156210000Y-54485000D03*
X158750000Y-54485000D03*
X161290000Y-54485000D03*
X163830000Y-54485000D03*
X166370000Y-54485000D03*
X168910000Y-54485000D03*
X171450000Y-54485000D03*
X171450000Y-62355000D03*
X168910000Y-62355000D03*
X166370000Y-62355000D03*
X163830000Y-62355000D03*
X161290000Y-62355000D03*
X158750000Y-62355000D03*
X156210000Y-62355000D03*
X153670000Y-62355000D03*
X151130000Y-62355000D03*
X148590000Y-62355000D03*
X146050000Y-62355000D03*
X143510000Y-62355000D03*
X140970000Y-62355000D03*
D17*
X138430000Y-62355000D03*
%TD*%
D16*
%TO.C,U3*%
X86360000Y-54485000D03*
X88900000Y-54485000D03*
X91440000Y-54485000D03*
X93980000Y-54485000D03*
X96520000Y-54485000D03*
X99060000Y-54485000D03*
X101600000Y-54485000D03*
X104140000Y-54485000D03*
X106680000Y-54485000D03*
X109220000Y-54485000D03*
X111760000Y-54485000D03*
X114300000Y-54485000D03*
X116840000Y-54485000D03*
X119380000Y-54485000D03*
X119380000Y-62355000D03*
X116840000Y-62355000D03*
X114300000Y-62355000D03*
X111760000Y-62355000D03*
X109220000Y-62355000D03*
X106680000Y-62355000D03*
X104140000Y-62355000D03*
X101600000Y-62355000D03*
X99060000Y-62355000D03*
X96520000Y-62355000D03*
X93980000Y-62355000D03*
X91440000Y-62355000D03*
X88900000Y-62355000D03*
D17*
X86360000Y-62355000D03*
%TD*%
D19*
%TO.C,U1*%
X185420000Y-102870000D03*
X185420000Y-105410000D03*
X185420000Y-107950000D03*
X185420000Y-110490000D03*
X185420000Y-113030000D03*
X185420000Y-115570000D03*
X185420000Y-118110000D03*
X177800000Y-118110000D03*
X177800000Y-115570000D03*
X177800000Y-113030000D03*
X177800000Y-110490000D03*
X177800000Y-107950000D03*
X177800000Y-105410000D03*
D20*
X177800000Y-102870000D03*
%TD*%
D21*
%TO.C,J00_IN1*%
X63500000Y-148590000D03*
D22*
X58420000Y-148590000D03*
%TD*%
D23*
%TO.C,J13*%
X128270000Y-139700000D03*
X125730000Y-139700000D03*
X123190000Y-139700000D03*
X120650000Y-139700000D03*
X118110000Y-139700000D03*
X115570000Y-139700000D03*
X113030000Y-139700000D03*
X110490000Y-139700000D03*
X107950000Y-139700000D03*
D24*
X105410000Y-139700000D03*
%TD*%
D23*
%TO.C,J12*%
X182880000Y-34290000D03*
X185420000Y-34290000D03*
X187960000Y-34290000D03*
X190500000Y-34290000D03*
X193040000Y-34290000D03*
X195580000Y-34290000D03*
X198120000Y-34290000D03*
X200660000Y-34290000D03*
X203200000Y-34290000D03*
X205740000Y-34290000D03*
X208280000Y-34290000D03*
X210820000Y-34290000D03*
X213360000Y-34290000D03*
X215900000Y-34290000D03*
X218440000Y-34290000D03*
D24*
X220980000Y-34290000D03*
%TD*%
D23*
%TO.C,J11*%
X134620000Y-34290000D03*
X137160000Y-34290000D03*
X139700000Y-34290000D03*
X142240000Y-34290000D03*
X144780000Y-34290000D03*
X147320000Y-34290000D03*
X149860000Y-34290000D03*
X152400000Y-34290000D03*
X154940000Y-34290000D03*
X157480000Y-34290000D03*
X160020000Y-34290000D03*
X162560000Y-34290000D03*
X165100000Y-34290000D03*
X167640000Y-34290000D03*
X170180000Y-34290000D03*
D24*
X172720000Y-34290000D03*
%TD*%
D23*
%TO.C,J10*%
X83820000Y-34290000D03*
X86360000Y-34290000D03*
X88900000Y-34290000D03*
X91440000Y-34290000D03*
X93980000Y-34290000D03*
X96520000Y-34290000D03*
X99060000Y-34290000D03*
X101600000Y-34290000D03*
X104140000Y-34290000D03*
X106680000Y-34290000D03*
X109220000Y-34290000D03*
X111760000Y-34290000D03*
X114300000Y-34290000D03*
X116840000Y-34290000D03*
X119380000Y-34290000D03*
D24*
X121920000Y-34290000D03*
%TD*%
D23*
%TO.C,J9*%
X36830000Y-34290000D03*
X39370000Y-34290000D03*
X41910000Y-34290000D03*
X44450000Y-34290000D03*
X46990000Y-34290000D03*
X49530000Y-34290000D03*
X52070000Y-34290000D03*
X54610000Y-34290000D03*
X57150000Y-34290000D03*
X59690000Y-34290000D03*
X62230000Y-34290000D03*
X64770000Y-34290000D03*
X67310000Y-34290000D03*
X69850000Y-34290000D03*
X72390000Y-34290000D03*
D24*
X74930000Y-34290000D03*
%TD*%
D21*
%TO.C,J8*%
X40640000Y-72390000D03*
D22*
X40640000Y-77470000D03*
%TD*%
D21*
%TO.C,J7*%
X40640000Y-90170000D03*
D22*
X40640000Y-95250000D03*
%TD*%
D21*
%TO.C,J6*%
X40640000Y-107950000D03*
D22*
X40640000Y-113030000D03*
%TD*%
D21*
%TO.C,J5*%
X40640000Y-125730000D03*
D22*
X40640000Y-130810000D03*
%TD*%
D21*
%TO.C,J4*%
X212090000Y-133350000D03*
X212090000Y-138430000D03*
D22*
X212090000Y-143510000D03*
%TD*%
D21*
%TO.C,J2*%
X212090000Y-115570000D03*
X212090000Y-120650000D03*
D22*
X212090000Y-125730000D03*
%TD*%
D21*
%TO.C,J1*%
X212090000Y-97790000D03*
X212090000Y-102870000D03*
D22*
X212090000Y-107950000D03*
%TD*%
D21*
%TO.C,J0*%
X212090000Y-80010000D03*
X212090000Y-85090000D03*
D22*
X212090000Y-90170000D03*
%TD*%
D25*
%TO.C,F0*%
X58420000Y-125550000D03*
D21*
X58420000Y-136800000D03*
X58420000Y-114300000D03*
%TD*%
M02*
