%TF.GenerationSoftware,KiCad,Pcbnew,(5.1.9)-1*%
%TF.CreationDate,2022-04-05T19:21:43+02:00*%
%TF.ProjectId,Hexagon_Desk,48657861-676f-46e5-9f44-65736b2e6b69,rev?*%
%TF.SameCoordinates,Original*%
%TF.FileFunction,Legend,Top*%
%TF.FilePolarity,Positive*%
%FSLAX46Y46*%
G04 Gerber Fmt 4.6, Leading zero omitted, Abs format (unit mm)*
G04 Created by KiCad (PCBNEW (5.1.9)-1) date 2022-04-05 19:21:43*
%MOMM*%
%LPD*%
G01*
G04 APERTURE LIST*
%ADD10C,0.150000*%
%ADD11C,0.127000*%
%ADD12C,0.120000*%
%ADD13C,0.200000*%
%ADD14C,0.152400*%
G04 APERTURE END LIST*
D10*
X221488095Y-132980000D02*
X221392857Y-132932380D01*
X221250000Y-132932380D01*
X221107142Y-132980000D01*
X221011904Y-133075238D01*
X220964285Y-133170476D01*
X220916666Y-133360952D01*
X220916666Y-133503809D01*
X220964285Y-133694285D01*
X221011904Y-133789523D01*
X221107142Y-133884761D01*
X221250000Y-133932380D01*
X221345238Y-133932380D01*
X221488095Y-133884761D01*
X221535714Y-133837142D01*
X221535714Y-133503809D01*
X221345238Y-133503809D01*
X221964285Y-133932380D02*
X221964285Y-132932380D01*
X222535714Y-133932380D01*
X222535714Y-132932380D01*
X223011904Y-133932380D02*
X223011904Y-132932380D01*
X223250000Y-132932380D01*
X223392857Y-132980000D01*
X223488095Y-133075238D01*
X223535714Y-133170476D01*
X223583333Y-133360952D01*
X223583333Y-133503809D01*
X223535714Y-133694285D01*
X223488095Y-133789523D01*
X223392857Y-133884761D01*
X223250000Y-133932380D01*
X223011904Y-133932380D01*
X220750000Y-138882380D02*
X220750000Y-137882380D01*
X220988095Y-137882380D01*
X221130952Y-137930000D01*
X221226190Y-138025238D01*
X221273809Y-138120476D01*
X221321428Y-138310952D01*
X221321428Y-138453809D01*
X221273809Y-138644285D01*
X221226190Y-138739523D01*
X221130952Y-138834761D01*
X220988095Y-138882380D01*
X220750000Y-138882380D01*
X221702380Y-138596666D02*
X222178571Y-138596666D01*
X221607142Y-138882380D02*
X221940476Y-137882380D01*
X222273809Y-138882380D01*
X222464285Y-137882380D02*
X223035714Y-137882380D01*
X222750000Y-138882380D02*
X222750000Y-137882380D01*
X223321428Y-138596666D02*
X223797619Y-138596666D01*
X223226190Y-138882380D02*
X223559523Y-137882380D01*
X223892857Y-138882380D01*
X220964285Y-143451428D02*
X221726190Y-143451428D01*
X221345238Y-143832380D02*
X221345238Y-143070476D01*
X222678571Y-142832380D02*
X222202380Y-142832380D01*
X222154761Y-143308571D01*
X222202380Y-143260952D01*
X222297619Y-143213333D01*
X222535714Y-143213333D01*
X222630952Y-143260952D01*
X222678571Y-143308571D01*
X222726190Y-143403809D01*
X222726190Y-143641904D01*
X222678571Y-143737142D01*
X222630952Y-143784761D01*
X222535714Y-143832380D01*
X222297619Y-143832380D01*
X222202380Y-143784761D01*
X222154761Y-143737142D01*
X223011904Y-142832380D02*
X223345238Y-143832380D01*
X223678571Y-142832380D01*
X109212380Y-84637619D02*
X109260000Y-84590000D01*
X109355238Y-84542380D01*
X109593333Y-84542380D01*
X109688571Y-84590000D01*
X109736190Y-84637619D01*
X109783809Y-84732857D01*
X109783809Y-84828095D01*
X109736190Y-84970952D01*
X109164761Y-85542380D01*
X109783809Y-85542380D01*
X110688571Y-84542380D02*
X110212380Y-84542380D01*
X110164761Y-85018571D01*
X110212380Y-84970952D01*
X110307619Y-84923333D01*
X110545714Y-84923333D01*
X110640952Y-84970952D01*
X110688571Y-85018571D01*
X110736190Y-85113809D01*
X110736190Y-85351904D01*
X110688571Y-85447142D01*
X110640952Y-85494761D01*
X110545714Y-85542380D01*
X110307619Y-85542380D01*
X110212380Y-85494761D01*
X110164761Y-85447142D01*
X111879047Y-85494761D02*
X112021904Y-85542380D01*
X112260000Y-85542380D01*
X112355238Y-85494761D01*
X112402857Y-85447142D01*
X112450476Y-85351904D01*
X112450476Y-85256666D01*
X112402857Y-85161428D01*
X112355238Y-85113809D01*
X112260000Y-85066190D01*
X112069523Y-85018571D01*
X111974285Y-84970952D01*
X111926666Y-84923333D01*
X111879047Y-84828095D01*
X111879047Y-84732857D01*
X111926666Y-84637619D01*
X111974285Y-84590000D01*
X112069523Y-84542380D01*
X112307619Y-84542380D01*
X112450476Y-84590000D01*
X112879047Y-85542380D02*
X112879047Y-84542380D01*
X113117142Y-84542380D01*
X113260000Y-84590000D01*
X113355238Y-84685238D01*
X113402857Y-84780476D01*
X113450476Y-84970952D01*
X113450476Y-85113809D01*
X113402857Y-85304285D01*
X113355238Y-85399523D01*
X113260000Y-85494761D01*
X113117142Y-85542380D01*
X112879047Y-85542380D01*
X113831428Y-85256666D02*
X114307619Y-85256666D01*
X113736190Y-85542380D02*
X114069523Y-84542380D01*
X114402857Y-85542380D01*
X100346190Y-84637619D02*
X100393809Y-84590000D01*
X100489047Y-84542380D01*
X100727142Y-84542380D01*
X100822380Y-84590000D01*
X100870000Y-84637619D01*
X100917619Y-84732857D01*
X100917619Y-84828095D01*
X100870000Y-84970952D01*
X100298571Y-85542380D01*
X100917619Y-85542380D01*
X101298571Y-84637619D02*
X101346190Y-84590000D01*
X101441428Y-84542380D01*
X101679523Y-84542380D01*
X101774761Y-84590000D01*
X101822380Y-84637619D01*
X101870000Y-84732857D01*
X101870000Y-84828095D01*
X101822380Y-84970952D01*
X101250952Y-85542380D01*
X101870000Y-85542380D01*
X103012857Y-85494761D02*
X103155714Y-85542380D01*
X103393809Y-85542380D01*
X103489047Y-85494761D01*
X103536666Y-85447142D01*
X103584285Y-85351904D01*
X103584285Y-85256666D01*
X103536666Y-85161428D01*
X103489047Y-85113809D01*
X103393809Y-85066190D01*
X103203333Y-85018571D01*
X103108095Y-84970952D01*
X103060476Y-84923333D01*
X103012857Y-84828095D01*
X103012857Y-84732857D01*
X103060476Y-84637619D01*
X103108095Y-84590000D01*
X103203333Y-84542380D01*
X103441428Y-84542380D01*
X103584285Y-84590000D01*
X104584285Y-85447142D02*
X104536666Y-85494761D01*
X104393809Y-85542380D01*
X104298571Y-85542380D01*
X104155714Y-85494761D01*
X104060476Y-85399523D01*
X104012857Y-85304285D01*
X103965238Y-85113809D01*
X103965238Y-84970952D01*
X104012857Y-84780476D01*
X104060476Y-84685238D01*
X104155714Y-84590000D01*
X104298571Y-84542380D01*
X104393809Y-84542380D01*
X104536666Y-84590000D01*
X104584285Y-84637619D01*
X105489047Y-85542380D02*
X105012857Y-85542380D01*
X105012857Y-84542380D01*
X144589523Y-116292380D02*
X144113333Y-116292380D01*
X144065714Y-116768571D01*
X144113333Y-116720952D01*
X144208571Y-116673333D01*
X144446666Y-116673333D01*
X144541904Y-116720952D01*
X144589523Y-116768571D01*
X144637142Y-116863809D01*
X144637142Y-117101904D01*
X144589523Y-117197142D01*
X144541904Y-117244761D01*
X144446666Y-117292380D01*
X144208571Y-117292380D01*
X144113333Y-117244761D01*
X144065714Y-117197142D01*
X144922857Y-116292380D02*
X145256190Y-117292380D01*
X145589523Y-116292380D01*
X131318095Y-116340000D02*
X131222857Y-116292380D01*
X131080000Y-116292380D01*
X130937142Y-116340000D01*
X130841904Y-116435238D01*
X130794285Y-116530476D01*
X130746666Y-116720952D01*
X130746666Y-116863809D01*
X130794285Y-117054285D01*
X130841904Y-117149523D01*
X130937142Y-117244761D01*
X131080000Y-117292380D01*
X131175238Y-117292380D01*
X131318095Y-117244761D01*
X131365714Y-117197142D01*
X131365714Y-116863809D01*
X131175238Y-116863809D01*
X131794285Y-117292380D02*
X131794285Y-116292380D01*
X132365714Y-117292380D01*
X132365714Y-116292380D01*
X132841904Y-117292380D02*
X132841904Y-116292380D01*
X133080000Y-116292380D01*
X133222857Y-116340000D01*
X133318095Y-116435238D01*
X133365714Y-116530476D01*
X133413333Y-116720952D01*
X133413333Y-116863809D01*
X133365714Y-117054285D01*
X133318095Y-117149523D01*
X133222857Y-117244761D01*
X133080000Y-117292380D01*
X132841904Y-117292380D01*
X221488095Y-97420000D02*
X221392857Y-97372380D01*
X221250000Y-97372380D01*
X221107142Y-97420000D01*
X221011904Y-97515238D01*
X220964285Y-97610476D01*
X220916666Y-97800952D01*
X220916666Y-97943809D01*
X220964285Y-98134285D01*
X221011904Y-98229523D01*
X221107142Y-98324761D01*
X221250000Y-98372380D01*
X221345238Y-98372380D01*
X221488095Y-98324761D01*
X221535714Y-98277142D01*
X221535714Y-97943809D01*
X221345238Y-97943809D01*
X221964285Y-98372380D02*
X221964285Y-97372380D01*
X222535714Y-98372380D01*
X222535714Y-97372380D01*
X223011904Y-98372380D02*
X223011904Y-97372380D01*
X223250000Y-97372380D01*
X223392857Y-97420000D01*
X223488095Y-97515238D01*
X223535714Y-97610476D01*
X223583333Y-97800952D01*
X223583333Y-97943809D01*
X223535714Y-98134285D01*
X223488095Y-98229523D01*
X223392857Y-98324761D01*
X223250000Y-98372380D01*
X223011904Y-98372380D01*
X220750000Y-103322380D02*
X220750000Y-102322380D01*
X220988095Y-102322380D01*
X221130952Y-102370000D01*
X221226190Y-102465238D01*
X221273809Y-102560476D01*
X221321428Y-102750952D01*
X221321428Y-102893809D01*
X221273809Y-103084285D01*
X221226190Y-103179523D01*
X221130952Y-103274761D01*
X220988095Y-103322380D01*
X220750000Y-103322380D01*
X221702380Y-103036666D02*
X222178571Y-103036666D01*
X221607142Y-103322380D02*
X221940476Y-102322380D01*
X222273809Y-103322380D01*
X222464285Y-102322380D02*
X223035714Y-102322380D01*
X222750000Y-103322380D02*
X222750000Y-102322380D01*
X223321428Y-103036666D02*
X223797619Y-103036666D01*
X223226190Y-103322380D02*
X223559523Y-102322380D01*
X223892857Y-103322380D01*
X220964285Y-107891428D02*
X221726190Y-107891428D01*
X221345238Y-108272380D02*
X221345238Y-107510476D01*
X222678571Y-107272380D02*
X222202380Y-107272380D01*
X222154761Y-107748571D01*
X222202380Y-107700952D01*
X222297619Y-107653333D01*
X222535714Y-107653333D01*
X222630952Y-107700952D01*
X222678571Y-107748571D01*
X222726190Y-107843809D01*
X222726190Y-108081904D01*
X222678571Y-108177142D01*
X222630952Y-108224761D01*
X222535714Y-108272380D01*
X222297619Y-108272380D01*
X222202380Y-108224761D01*
X222154761Y-108177142D01*
X223011904Y-107272380D02*
X223345238Y-108272380D01*
X223678571Y-107272380D01*
X58556428Y-154955714D02*
X58556428Y-154193809D01*
X58937380Y-154574761D02*
X58175476Y-154574761D01*
X57937380Y-153241428D02*
X57937380Y-153717619D01*
X58413571Y-153765238D01*
X58365952Y-153717619D01*
X58318333Y-153622380D01*
X58318333Y-153384285D01*
X58365952Y-153289047D01*
X58413571Y-153241428D01*
X58508809Y-153193809D01*
X58746904Y-153193809D01*
X58842142Y-153241428D01*
X58889761Y-153289047D01*
X58937380Y-153384285D01*
X58937380Y-153622380D01*
X58889761Y-153717619D01*
X58842142Y-153765238D01*
X57937380Y-152908095D02*
X58937380Y-152574761D01*
X57937380Y-152241428D01*
X62935000Y-154431904D02*
X62887380Y-154527142D01*
X62887380Y-154670000D01*
X62935000Y-154812857D01*
X63030238Y-154908095D01*
X63125476Y-154955714D01*
X63315952Y-155003333D01*
X63458809Y-155003333D01*
X63649285Y-154955714D01*
X63744523Y-154908095D01*
X63839761Y-154812857D01*
X63887380Y-154670000D01*
X63887380Y-154574761D01*
X63839761Y-154431904D01*
X63792142Y-154384285D01*
X63458809Y-154384285D01*
X63458809Y-154574761D01*
X63887380Y-153955714D02*
X62887380Y-153955714D01*
X63887380Y-153384285D01*
X62887380Y-153384285D01*
X63887380Y-152908095D02*
X62887380Y-152908095D01*
X62887380Y-152670000D01*
X62935000Y-152527142D01*
X63030238Y-152431904D01*
X63125476Y-152384285D01*
X63315952Y-152336666D01*
X63458809Y-152336666D01*
X63649285Y-152384285D01*
X63744523Y-152431904D01*
X63839761Y-152527142D01*
X63887380Y-152670000D01*
X63887380Y-152908095D01*
X162450000Y-149487380D02*
X162450000Y-148487380D01*
X162450000Y-148963571D02*
X163021428Y-148963571D01*
X163021428Y-149487380D02*
X163021428Y-148487380D01*
X163878571Y-149439761D02*
X163783333Y-149487380D01*
X163592857Y-149487380D01*
X163497619Y-149439761D01*
X163450000Y-149344523D01*
X163450000Y-148963571D01*
X163497619Y-148868333D01*
X163592857Y-148820714D01*
X163783333Y-148820714D01*
X163878571Y-148868333D01*
X163926190Y-148963571D01*
X163926190Y-149058809D01*
X163450000Y-149154047D01*
X164259523Y-149487380D02*
X164783333Y-148820714D01*
X164259523Y-148820714D02*
X164783333Y-149487380D01*
X165592857Y-149487380D02*
X165592857Y-148963571D01*
X165545238Y-148868333D01*
X165450000Y-148820714D01*
X165259523Y-148820714D01*
X165164285Y-148868333D01*
X165592857Y-149439761D02*
X165497619Y-149487380D01*
X165259523Y-149487380D01*
X165164285Y-149439761D01*
X165116666Y-149344523D01*
X165116666Y-149249285D01*
X165164285Y-149154047D01*
X165259523Y-149106428D01*
X165497619Y-149106428D01*
X165592857Y-149058809D01*
X166497619Y-148820714D02*
X166497619Y-149630238D01*
X166450000Y-149725476D01*
X166402380Y-149773095D01*
X166307142Y-149820714D01*
X166164285Y-149820714D01*
X166069047Y-149773095D01*
X166497619Y-149439761D02*
X166402380Y-149487380D01*
X166211904Y-149487380D01*
X166116666Y-149439761D01*
X166069047Y-149392142D01*
X166021428Y-149296904D01*
X166021428Y-149011190D01*
X166069047Y-148915952D01*
X166116666Y-148868333D01*
X166211904Y-148820714D01*
X166402380Y-148820714D01*
X166497619Y-148868333D01*
X167116666Y-149487380D02*
X167021428Y-149439761D01*
X166973809Y-149392142D01*
X166926190Y-149296904D01*
X166926190Y-149011190D01*
X166973809Y-148915952D01*
X167021428Y-148868333D01*
X167116666Y-148820714D01*
X167259523Y-148820714D01*
X167354761Y-148868333D01*
X167402380Y-148915952D01*
X167450000Y-149011190D01*
X167450000Y-149296904D01*
X167402380Y-149392142D01*
X167354761Y-149439761D01*
X167259523Y-149487380D01*
X167116666Y-149487380D01*
X167878571Y-148820714D02*
X167878571Y-149487380D01*
X167878571Y-148915952D02*
X167926190Y-148868333D01*
X168021428Y-148820714D01*
X168164285Y-148820714D01*
X168259523Y-148868333D01*
X168307142Y-148963571D01*
X168307142Y-149487380D01*
X169545238Y-149487380D02*
X169545238Y-148487380D01*
X169783333Y-148487380D01*
X169926190Y-148535000D01*
X170021428Y-148630238D01*
X170069047Y-148725476D01*
X170116666Y-148915952D01*
X170116666Y-149058809D01*
X170069047Y-149249285D01*
X170021428Y-149344523D01*
X169926190Y-149439761D01*
X169783333Y-149487380D01*
X169545238Y-149487380D01*
X170926190Y-149439761D02*
X170830952Y-149487380D01*
X170640476Y-149487380D01*
X170545238Y-149439761D01*
X170497619Y-149344523D01*
X170497619Y-148963571D01*
X170545238Y-148868333D01*
X170640476Y-148820714D01*
X170830952Y-148820714D01*
X170926190Y-148868333D01*
X170973809Y-148963571D01*
X170973809Y-149058809D01*
X170497619Y-149154047D01*
X171354761Y-149439761D02*
X171450000Y-149487380D01*
X171640476Y-149487380D01*
X171735714Y-149439761D01*
X171783333Y-149344523D01*
X171783333Y-149296904D01*
X171735714Y-149201666D01*
X171640476Y-149154047D01*
X171497619Y-149154047D01*
X171402380Y-149106428D01*
X171354761Y-149011190D01*
X171354761Y-148963571D01*
X171402380Y-148868333D01*
X171497619Y-148820714D01*
X171640476Y-148820714D01*
X171735714Y-148868333D01*
X172211904Y-149487380D02*
X172211904Y-148487380D01*
X172307142Y-149106428D02*
X172592857Y-149487380D01*
X172592857Y-148820714D02*
X172211904Y-149201666D01*
X173783333Y-149487380D02*
X173783333Y-148487380D01*
X174164285Y-148487380D01*
X174259523Y-148535000D01*
X174307142Y-148582619D01*
X174354761Y-148677857D01*
X174354761Y-148820714D01*
X174307142Y-148915952D01*
X174259523Y-148963571D01*
X174164285Y-149011190D01*
X173783333Y-149011190D01*
X175354761Y-149392142D02*
X175307142Y-149439761D01*
X175164285Y-149487380D01*
X175069047Y-149487380D01*
X174926190Y-149439761D01*
X174830952Y-149344523D01*
X174783333Y-149249285D01*
X174735714Y-149058809D01*
X174735714Y-148915952D01*
X174783333Y-148725476D01*
X174830952Y-148630238D01*
X174926190Y-148535000D01*
X175069047Y-148487380D01*
X175164285Y-148487380D01*
X175307142Y-148535000D01*
X175354761Y-148582619D01*
X176116666Y-148963571D02*
X176259523Y-149011190D01*
X176307142Y-149058809D01*
X176354761Y-149154047D01*
X176354761Y-149296904D01*
X176307142Y-149392142D01*
X176259523Y-149439761D01*
X176164285Y-149487380D01*
X175783333Y-149487380D01*
X175783333Y-148487380D01*
X176116666Y-148487380D01*
X176211904Y-148535000D01*
X176259523Y-148582619D01*
X176307142Y-148677857D01*
X176307142Y-148773095D01*
X176259523Y-148868333D01*
X176211904Y-148915952D01*
X176116666Y-148963571D01*
X175783333Y-148963571D01*
X178116666Y-149487380D02*
X177783333Y-149011190D01*
X177545238Y-149487380D02*
X177545238Y-148487380D01*
X177926190Y-148487380D01*
X178021428Y-148535000D01*
X178069047Y-148582619D01*
X178116666Y-148677857D01*
X178116666Y-148820714D01*
X178069047Y-148915952D01*
X178021428Y-148963571D01*
X177926190Y-149011190D01*
X177545238Y-149011190D01*
X178735714Y-148487380D02*
X178830952Y-148487380D01*
X178926190Y-148535000D01*
X178973809Y-148582619D01*
X179021428Y-148677857D01*
X179069047Y-148868333D01*
X179069047Y-149106428D01*
X179021428Y-149296904D01*
X178973809Y-149392142D01*
X178926190Y-149439761D01*
X178830952Y-149487380D01*
X178735714Y-149487380D01*
X178640476Y-149439761D01*
X178592857Y-149392142D01*
X178545238Y-149296904D01*
X178497619Y-149106428D01*
X178497619Y-148868333D01*
X178545238Y-148677857D01*
X178592857Y-148582619D01*
X178640476Y-148535000D01*
X178735714Y-148487380D01*
X179497619Y-149392142D02*
X179545238Y-149439761D01*
X179497619Y-149487380D01*
X179450000Y-149439761D01*
X179497619Y-149392142D01*
X179497619Y-149487380D01*
X180497619Y-149487380D02*
X179926190Y-149487380D01*
X180211904Y-149487380D02*
X180211904Y-148487380D01*
X180116666Y-148630238D01*
X180021428Y-148725476D01*
X179926190Y-148773095D01*
X165450000Y-151137380D02*
X165450000Y-150137380D01*
X165450000Y-150518333D02*
X165545238Y-150470714D01*
X165735714Y-150470714D01*
X165830952Y-150518333D01*
X165878571Y-150565952D01*
X165926190Y-150661190D01*
X165926190Y-150946904D01*
X165878571Y-151042142D01*
X165830952Y-151089761D01*
X165735714Y-151137380D01*
X165545238Y-151137380D01*
X165450000Y-151089761D01*
X166259523Y-150470714D02*
X166497619Y-151137380D01*
X166735714Y-150470714D02*
X166497619Y-151137380D01*
X166402380Y-151375476D01*
X166354761Y-151423095D01*
X166259523Y-151470714D01*
X167878571Y-151137380D02*
X167878571Y-150137380D01*
X168211904Y-150851666D01*
X168545238Y-150137380D01*
X168545238Y-151137380D01*
X169450000Y-151137380D02*
X169450000Y-150613571D01*
X169402380Y-150518333D01*
X169307142Y-150470714D01*
X169116666Y-150470714D01*
X169021428Y-150518333D01*
X169450000Y-151089761D02*
X169354761Y-151137380D01*
X169116666Y-151137380D01*
X169021428Y-151089761D01*
X168973809Y-150994523D01*
X168973809Y-150899285D01*
X169021428Y-150804047D01*
X169116666Y-150756428D01*
X169354761Y-150756428D01*
X169450000Y-150708809D01*
X169926190Y-151137380D02*
X169926190Y-150470714D01*
X169926190Y-150661190D02*
X169973809Y-150565952D01*
X170021428Y-150518333D01*
X170116666Y-150470714D01*
X170211904Y-150470714D01*
X170973809Y-151089761D02*
X170878571Y-151137380D01*
X170688095Y-151137380D01*
X170592857Y-151089761D01*
X170545238Y-151042142D01*
X170497619Y-150946904D01*
X170497619Y-150661190D01*
X170545238Y-150565952D01*
X170592857Y-150518333D01*
X170688095Y-150470714D01*
X170878571Y-150470714D01*
X170973809Y-150518333D01*
X171783333Y-151089761D02*
X171688095Y-151137380D01*
X171497619Y-151137380D01*
X171402380Y-151089761D01*
X171354761Y-150994523D01*
X171354761Y-150613571D01*
X171402380Y-150518333D01*
X171497619Y-150470714D01*
X171688095Y-150470714D01*
X171783333Y-150518333D01*
X171830952Y-150613571D01*
X171830952Y-150708809D01*
X171354761Y-150804047D01*
X172402380Y-151137380D02*
X172307142Y-151089761D01*
X172259523Y-150994523D01*
X172259523Y-150137380D01*
X173497619Y-151089761D02*
X173640476Y-151137380D01*
X173878571Y-151137380D01*
X173973809Y-151089761D01*
X174021428Y-151042142D01*
X174069047Y-150946904D01*
X174069047Y-150851666D01*
X174021428Y-150756428D01*
X173973809Y-150708809D01*
X173878571Y-150661190D01*
X173688095Y-150613571D01*
X173592857Y-150565952D01*
X173545238Y-150518333D01*
X173497619Y-150423095D01*
X173497619Y-150327857D01*
X173545238Y-150232619D01*
X173592857Y-150185000D01*
X173688095Y-150137380D01*
X173926190Y-150137380D01*
X174069047Y-150185000D01*
X174926190Y-150470714D02*
X174926190Y-151137380D01*
X174497619Y-150470714D02*
X174497619Y-150994523D01*
X174545238Y-151089761D01*
X174640476Y-151137380D01*
X174783333Y-151137380D01*
X174878571Y-151089761D01*
X174926190Y-151042142D01*
X175259523Y-150470714D02*
X175640476Y-150470714D01*
X175402380Y-151137380D02*
X175402380Y-150280238D01*
X175450000Y-150185000D01*
X175545238Y-150137380D01*
X175640476Y-150137380D01*
X175830952Y-150470714D02*
X176211904Y-150470714D01*
X175973809Y-151137380D02*
X175973809Y-150280238D01*
X176021428Y-150185000D01*
X176116666Y-150137380D01*
X176211904Y-150137380D01*
X176926190Y-151089761D02*
X176830952Y-151137380D01*
X176640476Y-151137380D01*
X176545238Y-151089761D01*
X176497619Y-150994523D01*
X176497619Y-150613571D01*
X176545238Y-150518333D01*
X176640476Y-150470714D01*
X176830952Y-150470714D01*
X176926190Y-150518333D01*
X176973809Y-150613571D01*
X176973809Y-150708809D01*
X176497619Y-150804047D01*
X177545238Y-151137380D02*
X177450000Y-151089761D01*
X177402380Y-150994523D01*
X177402380Y-150137380D01*
X182380000Y-31622857D02*
X182332380Y-31718095D01*
X182332380Y-31860952D01*
X182380000Y-32003809D01*
X182475238Y-32099047D01*
X182570476Y-32146666D01*
X182760952Y-32194285D01*
X182903809Y-32194285D01*
X183094285Y-32146666D01*
X183189523Y-32099047D01*
X183284761Y-32003809D01*
X183332380Y-31860952D01*
X183332380Y-31765714D01*
X183284761Y-31622857D01*
X183237142Y-31575238D01*
X182903809Y-31575238D01*
X182903809Y-31765714D01*
X183332380Y-31146666D02*
X182332380Y-31146666D01*
X182332380Y-30765714D01*
X182380000Y-30670476D01*
X182427619Y-30622857D01*
X182522857Y-30575238D01*
X182665714Y-30575238D01*
X182760952Y-30622857D01*
X182808571Y-30670476D01*
X182856190Y-30765714D01*
X182856190Y-31146666D01*
X183046666Y-30194285D02*
X183046666Y-29718095D01*
X183332380Y-30289523D02*
X182332380Y-29956190D01*
X183332380Y-29622857D01*
X182332380Y-29099047D02*
X182332380Y-29003809D01*
X182380000Y-28908571D01*
X182427619Y-28860952D01*
X182522857Y-28813333D01*
X182713333Y-28765714D01*
X182951428Y-28765714D01*
X183141904Y-28813333D01*
X183237142Y-28860952D01*
X183284761Y-28908571D01*
X183332380Y-29003809D01*
X183332380Y-29099047D01*
X183284761Y-29194285D01*
X183237142Y-29241904D01*
X183141904Y-29289523D01*
X182951428Y-29337142D01*
X182713333Y-29337142D01*
X182522857Y-29289523D01*
X182427619Y-29241904D01*
X182380000Y-29194285D01*
X182332380Y-29099047D01*
X134120000Y-31622857D02*
X134072380Y-31718095D01*
X134072380Y-31860952D01*
X134120000Y-32003809D01*
X134215238Y-32099047D01*
X134310476Y-32146666D01*
X134500952Y-32194285D01*
X134643809Y-32194285D01*
X134834285Y-32146666D01*
X134929523Y-32099047D01*
X135024761Y-32003809D01*
X135072380Y-31860952D01*
X135072380Y-31765714D01*
X135024761Y-31622857D01*
X134977142Y-31575238D01*
X134643809Y-31575238D01*
X134643809Y-31765714D01*
X135072380Y-31146666D02*
X134072380Y-31146666D01*
X134072380Y-30765714D01*
X134120000Y-30670476D01*
X134167619Y-30622857D01*
X134262857Y-30575238D01*
X134405714Y-30575238D01*
X134500952Y-30622857D01*
X134548571Y-30670476D01*
X134596190Y-30765714D01*
X134596190Y-31146666D01*
X134786666Y-30194285D02*
X134786666Y-29718095D01*
X135072380Y-30289523D02*
X134072380Y-29956190D01*
X135072380Y-29622857D01*
X134072380Y-29099047D02*
X134072380Y-29003809D01*
X134120000Y-28908571D01*
X134167619Y-28860952D01*
X134262857Y-28813333D01*
X134453333Y-28765714D01*
X134691428Y-28765714D01*
X134881904Y-28813333D01*
X134977142Y-28860952D01*
X135024761Y-28908571D01*
X135072380Y-29003809D01*
X135072380Y-29099047D01*
X135024761Y-29194285D01*
X134977142Y-29241904D01*
X134881904Y-29289523D01*
X134691428Y-29337142D01*
X134453333Y-29337142D01*
X134262857Y-29289523D01*
X134167619Y-29241904D01*
X134120000Y-29194285D01*
X134072380Y-29099047D01*
X83320000Y-31622857D02*
X83272380Y-31718095D01*
X83272380Y-31860952D01*
X83320000Y-32003809D01*
X83415238Y-32099047D01*
X83510476Y-32146666D01*
X83700952Y-32194285D01*
X83843809Y-32194285D01*
X84034285Y-32146666D01*
X84129523Y-32099047D01*
X84224761Y-32003809D01*
X84272380Y-31860952D01*
X84272380Y-31765714D01*
X84224761Y-31622857D01*
X84177142Y-31575238D01*
X83843809Y-31575238D01*
X83843809Y-31765714D01*
X84272380Y-31146666D02*
X83272380Y-31146666D01*
X83272380Y-30765714D01*
X83320000Y-30670476D01*
X83367619Y-30622857D01*
X83462857Y-30575238D01*
X83605714Y-30575238D01*
X83700952Y-30622857D01*
X83748571Y-30670476D01*
X83796190Y-30765714D01*
X83796190Y-31146666D01*
X83986666Y-30194285D02*
X83986666Y-29718095D01*
X84272380Y-30289523D02*
X83272380Y-29956190D01*
X84272380Y-29622857D01*
X83272380Y-29099047D02*
X83272380Y-29003809D01*
X83320000Y-28908571D01*
X83367619Y-28860952D01*
X83462857Y-28813333D01*
X83653333Y-28765714D01*
X83891428Y-28765714D01*
X84081904Y-28813333D01*
X84177142Y-28860952D01*
X84224761Y-28908571D01*
X84272380Y-29003809D01*
X84272380Y-29099047D01*
X84224761Y-29194285D01*
X84177142Y-29241904D01*
X84081904Y-29289523D01*
X83891428Y-29337142D01*
X83653333Y-29337142D01*
X83462857Y-29289523D01*
X83367619Y-29241904D01*
X83320000Y-29194285D01*
X83272380Y-29099047D01*
X200160000Y-31622857D02*
X200112380Y-31718095D01*
X200112380Y-31860952D01*
X200160000Y-32003809D01*
X200255238Y-32099047D01*
X200350476Y-32146666D01*
X200540952Y-32194285D01*
X200683809Y-32194285D01*
X200874285Y-32146666D01*
X200969523Y-32099047D01*
X201064761Y-32003809D01*
X201112380Y-31860952D01*
X201112380Y-31765714D01*
X201064761Y-31622857D01*
X201017142Y-31575238D01*
X200683809Y-31575238D01*
X200683809Y-31765714D01*
X201112380Y-31146666D02*
X200112380Y-31146666D01*
X200112380Y-30765714D01*
X200160000Y-30670476D01*
X200207619Y-30622857D01*
X200302857Y-30575238D01*
X200445714Y-30575238D01*
X200540952Y-30622857D01*
X200588571Y-30670476D01*
X200636190Y-30765714D01*
X200636190Y-31146666D01*
X200826666Y-30194285D02*
X200826666Y-29718095D01*
X201112380Y-30289523D02*
X200112380Y-29956190D01*
X201112380Y-29622857D01*
X200112380Y-29099047D02*
X200112380Y-29003809D01*
X200160000Y-28908571D01*
X200207619Y-28860952D01*
X200302857Y-28813333D01*
X200493333Y-28765714D01*
X200731428Y-28765714D01*
X200921904Y-28813333D01*
X201017142Y-28860952D01*
X201064761Y-28908571D01*
X201112380Y-29003809D01*
X201112380Y-29099047D01*
X201064761Y-29194285D01*
X201017142Y-29241904D01*
X200921904Y-29289523D01*
X200731428Y-29337142D01*
X200493333Y-29337142D01*
X200302857Y-29289523D01*
X200207619Y-29241904D01*
X200160000Y-29194285D01*
X200112380Y-29099047D01*
X151900000Y-31622857D02*
X151852380Y-31718095D01*
X151852380Y-31860952D01*
X151900000Y-32003809D01*
X151995238Y-32099047D01*
X152090476Y-32146666D01*
X152280952Y-32194285D01*
X152423809Y-32194285D01*
X152614285Y-32146666D01*
X152709523Y-32099047D01*
X152804761Y-32003809D01*
X152852380Y-31860952D01*
X152852380Y-31765714D01*
X152804761Y-31622857D01*
X152757142Y-31575238D01*
X152423809Y-31575238D01*
X152423809Y-31765714D01*
X152852380Y-31146666D02*
X151852380Y-31146666D01*
X151852380Y-30765714D01*
X151900000Y-30670476D01*
X151947619Y-30622857D01*
X152042857Y-30575238D01*
X152185714Y-30575238D01*
X152280952Y-30622857D01*
X152328571Y-30670476D01*
X152376190Y-30765714D01*
X152376190Y-31146666D01*
X152566666Y-30194285D02*
X152566666Y-29718095D01*
X152852380Y-30289523D02*
X151852380Y-29956190D01*
X152852380Y-29622857D01*
X151852380Y-29099047D02*
X151852380Y-29003809D01*
X151900000Y-28908571D01*
X151947619Y-28860952D01*
X152042857Y-28813333D01*
X152233333Y-28765714D01*
X152471428Y-28765714D01*
X152661904Y-28813333D01*
X152757142Y-28860952D01*
X152804761Y-28908571D01*
X152852380Y-29003809D01*
X152852380Y-29099047D01*
X152804761Y-29194285D01*
X152757142Y-29241904D01*
X152661904Y-29289523D01*
X152471428Y-29337142D01*
X152233333Y-29337142D01*
X152042857Y-29289523D01*
X151947619Y-29241904D01*
X151900000Y-29194285D01*
X151852380Y-29099047D01*
X101100000Y-31622857D02*
X101052380Y-31718095D01*
X101052380Y-31860952D01*
X101100000Y-32003809D01*
X101195238Y-32099047D01*
X101290476Y-32146666D01*
X101480952Y-32194285D01*
X101623809Y-32194285D01*
X101814285Y-32146666D01*
X101909523Y-32099047D01*
X102004761Y-32003809D01*
X102052380Y-31860952D01*
X102052380Y-31765714D01*
X102004761Y-31622857D01*
X101957142Y-31575238D01*
X101623809Y-31575238D01*
X101623809Y-31765714D01*
X102052380Y-31146666D02*
X101052380Y-31146666D01*
X101052380Y-30765714D01*
X101100000Y-30670476D01*
X101147619Y-30622857D01*
X101242857Y-30575238D01*
X101385714Y-30575238D01*
X101480952Y-30622857D01*
X101528571Y-30670476D01*
X101576190Y-30765714D01*
X101576190Y-31146666D01*
X101766666Y-30194285D02*
X101766666Y-29718095D01*
X102052380Y-30289523D02*
X101052380Y-29956190D01*
X102052380Y-29622857D01*
X101052380Y-29099047D02*
X101052380Y-29003809D01*
X101100000Y-28908571D01*
X101147619Y-28860952D01*
X101242857Y-28813333D01*
X101433333Y-28765714D01*
X101671428Y-28765714D01*
X101861904Y-28813333D01*
X101957142Y-28860952D01*
X102004761Y-28908571D01*
X102052380Y-29003809D01*
X102052380Y-29099047D01*
X102004761Y-29194285D01*
X101957142Y-29241904D01*
X101861904Y-29289523D01*
X101671428Y-29337142D01*
X101433333Y-29337142D01*
X101242857Y-29289523D01*
X101147619Y-29241904D01*
X101100000Y-29194285D01*
X101052380Y-29099047D01*
X202700000Y-31694285D02*
X202652380Y-31789523D01*
X202652380Y-31932380D01*
X202700000Y-32075238D01*
X202795238Y-32170476D01*
X202890476Y-32218095D01*
X203080952Y-32265714D01*
X203223809Y-32265714D01*
X203414285Y-32218095D01*
X203509523Y-32170476D01*
X203604761Y-32075238D01*
X203652380Y-31932380D01*
X203652380Y-31837142D01*
X203604761Y-31694285D01*
X203557142Y-31646666D01*
X203223809Y-31646666D01*
X203223809Y-31837142D01*
X203652380Y-31218095D02*
X202652380Y-31218095D01*
X202652380Y-30837142D01*
X202700000Y-30741904D01*
X202747619Y-30694285D01*
X202842857Y-30646666D01*
X202985714Y-30646666D01*
X203080952Y-30694285D01*
X203128571Y-30741904D01*
X203176190Y-30837142D01*
X203176190Y-31218095D01*
X203128571Y-29884761D02*
X203176190Y-29741904D01*
X203223809Y-29694285D01*
X203319047Y-29646666D01*
X203461904Y-29646666D01*
X203557142Y-29694285D01*
X203604761Y-29741904D01*
X203652380Y-29837142D01*
X203652380Y-30218095D01*
X202652380Y-30218095D01*
X202652380Y-29884761D01*
X202700000Y-29789523D01*
X202747619Y-29741904D01*
X202842857Y-29694285D01*
X202938095Y-29694285D01*
X203033333Y-29741904D01*
X203080952Y-29789523D01*
X203128571Y-29884761D01*
X203128571Y-30218095D01*
X202652380Y-29313333D02*
X202652380Y-28646666D01*
X203652380Y-29075238D01*
X154440000Y-31694285D02*
X154392380Y-31789523D01*
X154392380Y-31932380D01*
X154440000Y-32075238D01*
X154535238Y-32170476D01*
X154630476Y-32218095D01*
X154820952Y-32265714D01*
X154963809Y-32265714D01*
X155154285Y-32218095D01*
X155249523Y-32170476D01*
X155344761Y-32075238D01*
X155392380Y-31932380D01*
X155392380Y-31837142D01*
X155344761Y-31694285D01*
X155297142Y-31646666D01*
X154963809Y-31646666D01*
X154963809Y-31837142D01*
X155392380Y-31218095D02*
X154392380Y-31218095D01*
X154392380Y-30837142D01*
X154440000Y-30741904D01*
X154487619Y-30694285D01*
X154582857Y-30646666D01*
X154725714Y-30646666D01*
X154820952Y-30694285D01*
X154868571Y-30741904D01*
X154916190Y-30837142D01*
X154916190Y-31218095D01*
X154868571Y-29884761D02*
X154916190Y-29741904D01*
X154963809Y-29694285D01*
X155059047Y-29646666D01*
X155201904Y-29646666D01*
X155297142Y-29694285D01*
X155344761Y-29741904D01*
X155392380Y-29837142D01*
X155392380Y-30218095D01*
X154392380Y-30218095D01*
X154392380Y-29884761D01*
X154440000Y-29789523D01*
X154487619Y-29741904D01*
X154582857Y-29694285D01*
X154678095Y-29694285D01*
X154773333Y-29741904D01*
X154820952Y-29789523D01*
X154868571Y-29884761D01*
X154868571Y-30218095D01*
X154392380Y-29313333D02*
X154392380Y-28646666D01*
X155392380Y-29075238D01*
X103640000Y-31694285D02*
X103592380Y-31789523D01*
X103592380Y-31932380D01*
X103640000Y-32075238D01*
X103735238Y-32170476D01*
X103830476Y-32218095D01*
X104020952Y-32265714D01*
X104163809Y-32265714D01*
X104354285Y-32218095D01*
X104449523Y-32170476D01*
X104544761Y-32075238D01*
X104592380Y-31932380D01*
X104592380Y-31837142D01*
X104544761Y-31694285D01*
X104497142Y-31646666D01*
X104163809Y-31646666D01*
X104163809Y-31837142D01*
X104592380Y-31218095D02*
X103592380Y-31218095D01*
X103592380Y-30837142D01*
X103640000Y-30741904D01*
X103687619Y-30694285D01*
X103782857Y-30646666D01*
X103925714Y-30646666D01*
X104020952Y-30694285D01*
X104068571Y-30741904D01*
X104116190Y-30837142D01*
X104116190Y-31218095D01*
X104068571Y-29884761D02*
X104116190Y-29741904D01*
X104163809Y-29694285D01*
X104259047Y-29646666D01*
X104401904Y-29646666D01*
X104497142Y-29694285D01*
X104544761Y-29741904D01*
X104592380Y-29837142D01*
X104592380Y-30218095D01*
X103592380Y-30218095D01*
X103592380Y-29884761D01*
X103640000Y-29789523D01*
X103687619Y-29741904D01*
X103782857Y-29694285D01*
X103878095Y-29694285D01*
X103973333Y-29741904D01*
X104020952Y-29789523D01*
X104068571Y-29884761D01*
X104068571Y-30218095D01*
X103592380Y-29313333D02*
X103592380Y-28646666D01*
X104592380Y-29075238D01*
X220480000Y-31694285D02*
X220432380Y-31789523D01*
X220432380Y-31932380D01*
X220480000Y-32075238D01*
X220575238Y-32170476D01*
X220670476Y-32218095D01*
X220860952Y-32265714D01*
X221003809Y-32265714D01*
X221194285Y-32218095D01*
X221289523Y-32170476D01*
X221384761Y-32075238D01*
X221432380Y-31932380D01*
X221432380Y-31837142D01*
X221384761Y-31694285D01*
X221337142Y-31646666D01*
X221003809Y-31646666D01*
X221003809Y-31837142D01*
X221432380Y-31218095D02*
X220432380Y-31218095D01*
X220432380Y-30837142D01*
X220480000Y-30741904D01*
X220527619Y-30694285D01*
X220622857Y-30646666D01*
X220765714Y-30646666D01*
X220860952Y-30694285D01*
X220908571Y-30741904D01*
X220956190Y-30837142D01*
X220956190Y-31218095D01*
X220908571Y-29884761D02*
X220956190Y-29741904D01*
X221003809Y-29694285D01*
X221099047Y-29646666D01*
X221241904Y-29646666D01*
X221337142Y-29694285D01*
X221384761Y-29741904D01*
X221432380Y-29837142D01*
X221432380Y-30218095D01*
X220432380Y-30218095D01*
X220432380Y-29884761D01*
X220480000Y-29789523D01*
X220527619Y-29741904D01*
X220622857Y-29694285D01*
X220718095Y-29694285D01*
X220813333Y-29741904D01*
X220860952Y-29789523D01*
X220908571Y-29884761D01*
X220908571Y-30218095D01*
X220432380Y-29027619D02*
X220432380Y-28932380D01*
X220480000Y-28837142D01*
X220527619Y-28789523D01*
X220622857Y-28741904D01*
X220813333Y-28694285D01*
X221051428Y-28694285D01*
X221241904Y-28741904D01*
X221337142Y-28789523D01*
X221384761Y-28837142D01*
X221432380Y-28932380D01*
X221432380Y-29027619D01*
X221384761Y-29122857D01*
X221337142Y-29170476D01*
X221241904Y-29218095D01*
X221051428Y-29265714D01*
X220813333Y-29265714D01*
X220622857Y-29218095D01*
X220527619Y-29170476D01*
X220480000Y-29122857D01*
X220432380Y-29027619D01*
X172220000Y-31694285D02*
X172172380Y-31789523D01*
X172172380Y-31932380D01*
X172220000Y-32075238D01*
X172315238Y-32170476D01*
X172410476Y-32218095D01*
X172600952Y-32265714D01*
X172743809Y-32265714D01*
X172934285Y-32218095D01*
X173029523Y-32170476D01*
X173124761Y-32075238D01*
X173172380Y-31932380D01*
X173172380Y-31837142D01*
X173124761Y-31694285D01*
X173077142Y-31646666D01*
X172743809Y-31646666D01*
X172743809Y-31837142D01*
X173172380Y-31218095D02*
X172172380Y-31218095D01*
X172172380Y-30837142D01*
X172220000Y-30741904D01*
X172267619Y-30694285D01*
X172362857Y-30646666D01*
X172505714Y-30646666D01*
X172600952Y-30694285D01*
X172648571Y-30741904D01*
X172696190Y-30837142D01*
X172696190Y-31218095D01*
X172648571Y-29884761D02*
X172696190Y-29741904D01*
X172743809Y-29694285D01*
X172839047Y-29646666D01*
X172981904Y-29646666D01*
X173077142Y-29694285D01*
X173124761Y-29741904D01*
X173172380Y-29837142D01*
X173172380Y-30218095D01*
X172172380Y-30218095D01*
X172172380Y-29884761D01*
X172220000Y-29789523D01*
X172267619Y-29741904D01*
X172362857Y-29694285D01*
X172458095Y-29694285D01*
X172553333Y-29741904D01*
X172600952Y-29789523D01*
X172648571Y-29884761D01*
X172648571Y-30218095D01*
X172172380Y-29027619D02*
X172172380Y-28932380D01*
X172220000Y-28837142D01*
X172267619Y-28789523D01*
X172362857Y-28741904D01*
X172553333Y-28694285D01*
X172791428Y-28694285D01*
X172981904Y-28741904D01*
X173077142Y-28789523D01*
X173124761Y-28837142D01*
X173172380Y-28932380D01*
X173172380Y-29027619D01*
X173124761Y-29122857D01*
X173077142Y-29170476D01*
X172981904Y-29218095D01*
X172791428Y-29265714D01*
X172553333Y-29265714D01*
X172362857Y-29218095D01*
X172267619Y-29170476D01*
X172220000Y-29122857D01*
X172172380Y-29027619D01*
X121420000Y-31694285D02*
X121372380Y-31789523D01*
X121372380Y-31932380D01*
X121420000Y-32075238D01*
X121515238Y-32170476D01*
X121610476Y-32218095D01*
X121800952Y-32265714D01*
X121943809Y-32265714D01*
X122134285Y-32218095D01*
X122229523Y-32170476D01*
X122324761Y-32075238D01*
X122372380Y-31932380D01*
X122372380Y-31837142D01*
X122324761Y-31694285D01*
X122277142Y-31646666D01*
X121943809Y-31646666D01*
X121943809Y-31837142D01*
X122372380Y-31218095D02*
X121372380Y-31218095D01*
X121372380Y-30837142D01*
X121420000Y-30741904D01*
X121467619Y-30694285D01*
X121562857Y-30646666D01*
X121705714Y-30646666D01*
X121800952Y-30694285D01*
X121848571Y-30741904D01*
X121896190Y-30837142D01*
X121896190Y-31218095D01*
X121848571Y-29884761D02*
X121896190Y-29741904D01*
X121943809Y-29694285D01*
X122039047Y-29646666D01*
X122181904Y-29646666D01*
X122277142Y-29694285D01*
X122324761Y-29741904D01*
X122372380Y-29837142D01*
X122372380Y-30218095D01*
X121372380Y-30218095D01*
X121372380Y-29884761D01*
X121420000Y-29789523D01*
X121467619Y-29741904D01*
X121562857Y-29694285D01*
X121658095Y-29694285D01*
X121753333Y-29741904D01*
X121800952Y-29789523D01*
X121848571Y-29884761D01*
X121848571Y-30218095D01*
X121372380Y-29027619D02*
X121372380Y-28932380D01*
X121420000Y-28837142D01*
X121467619Y-28789523D01*
X121562857Y-28741904D01*
X121753333Y-28694285D01*
X121991428Y-28694285D01*
X122181904Y-28741904D01*
X122277142Y-28789523D01*
X122324761Y-28837142D01*
X122372380Y-28932380D01*
X122372380Y-29027619D01*
X122324761Y-29122857D01*
X122277142Y-29170476D01*
X122181904Y-29218095D01*
X121991428Y-29265714D01*
X121753333Y-29265714D01*
X121562857Y-29218095D01*
X121467619Y-29170476D01*
X121420000Y-29122857D01*
X121372380Y-29027619D01*
X74430000Y-31694285D02*
X74382380Y-31789523D01*
X74382380Y-31932380D01*
X74430000Y-32075238D01*
X74525238Y-32170476D01*
X74620476Y-32218095D01*
X74810952Y-32265714D01*
X74953809Y-32265714D01*
X75144285Y-32218095D01*
X75239523Y-32170476D01*
X75334761Y-32075238D01*
X75382380Y-31932380D01*
X75382380Y-31837142D01*
X75334761Y-31694285D01*
X75287142Y-31646666D01*
X74953809Y-31646666D01*
X74953809Y-31837142D01*
X75382380Y-31218095D02*
X74382380Y-31218095D01*
X74382380Y-30837142D01*
X74430000Y-30741904D01*
X74477619Y-30694285D01*
X74572857Y-30646666D01*
X74715714Y-30646666D01*
X74810952Y-30694285D01*
X74858571Y-30741904D01*
X74906190Y-30837142D01*
X74906190Y-31218095D01*
X74858571Y-29884761D02*
X74906190Y-29741904D01*
X74953809Y-29694285D01*
X75049047Y-29646666D01*
X75191904Y-29646666D01*
X75287142Y-29694285D01*
X75334761Y-29741904D01*
X75382380Y-29837142D01*
X75382380Y-30218095D01*
X74382380Y-30218095D01*
X74382380Y-29884761D01*
X74430000Y-29789523D01*
X74477619Y-29741904D01*
X74572857Y-29694285D01*
X74668095Y-29694285D01*
X74763333Y-29741904D01*
X74810952Y-29789523D01*
X74858571Y-29884761D01*
X74858571Y-30218095D01*
X74382380Y-29027619D02*
X74382380Y-28932380D01*
X74430000Y-28837142D01*
X74477619Y-28789523D01*
X74572857Y-28741904D01*
X74763333Y-28694285D01*
X75001428Y-28694285D01*
X75191904Y-28741904D01*
X75287142Y-28789523D01*
X75334761Y-28837142D01*
X75382380Y-28932380D01*
X75382380Y-29027619D01*
X75334761Y-29122857D01*
X75287142Y-29170476D01*
X75191904Y-29218095D01*
X75001428Y-29265714D01*
X74763333Y-29265714D01*
X74572857Y-29218095D01*
X74477619Y-29170476D01*
X74430000Y-29122857D01*
X74382380Y-29027619D01*
X56650000Y-31694285D02*
X56602380Y-31789523D01*
X56602380Y-31932380D01*
X56650000Y-32075238D01*
X56745238Y-32170476D01*
X56840476Y-32218095D01*
X57030952Y-32265714D01*
X57173809Y-32265714D01*
X57364285Y-32218095D01*
X57459523Y-32170476D01*
X57554761Y-32075238D01*
X57602380Y-31932380D01*
X57602380Y-31837142D01*
X57554761Y-31694285D01*
X57507142Y-31646666D01*
X57173809Y-31646666D01*
X57173809Y-31837142D01*
X57602380Y-31218095D02*
X56602380Y-31218095D01*
X56602380Y-30837142D01*
X56650000Y-30741904D01*
X56697619Y-30694285D01*
X56792857Y-30646666D01*
X56935714Y-30646666D01*
X57030952Y-30694285D01*
X57078571Y-30741904D01*
X57126190Y-30837142D01*
X57126190Y-31218095D01*
X57078571Y-29884761D02*
X57126190Y-29741904D01*
X57173809Y-29694285D01*
X57269047Y-29646666D01*
X57411904Y-29646666D01*
X57507142Y-29694285D01*
X57554761Y-29741904D01*
X57602380Y-29837142D01*
X57602380Y-30218095D01*
X56602380Y-30218095D01*
X56602380Y-29884761D01*
X56650000Y-29789523D01*
X56697619Y-29741904D01*
X56792857Y-29694285D01*
X56888095Y-29694285D01*
X56983333Y-29741904D01*
X57030952Y-29789523D01*
X57078571Y-29884761D01*
X57078571Y-30218095D01*
X56602380Y-29313333D02*
X56602380Y-28646666D01*
X57602380Y-29075238D01*
X54110000Y-31622857D02*
X54062380Y-31718095D01*
X54062380Y-31860952D01*
X54110000Y-32003809D01*
X54205238Y-32099047D01*
X54300476Y-32146666D01*
X54490952Y-32194285D01*
X54633809Y-32194285D01*
X54824285Y-32146666D01*
X54919523Y-32099047D01*
X55014761Y-32003809D01*
X55062380Y-31860952D01*
X55062380Y-31765714D01*
X55014761Y-31622857D01*
X54967142Y-31575238D01*
X54633809Y-31575238D01*
X54633809Y-31765714D01*
X55062380Y-31146666D02*
X54062380Y-31146666D01*
X54062380Y-30765714D01*
X54110000Y-30670476D01*
X54157619Y-30622857D01*
X54252857Y-30575238D01*
X54395714Y-30575238D01*
X54490952Y-30622857D01*
X54538571Y-30670476D01*
X54586190Y-30765714D01*
X54586190Y-31146666D01*
X54776666Y-30194285D02*
X54776666Y-29718095D01*
X55062380Y-30289523D02*
X54062380Y-29956190D01*
X55062380Y-29622857D01*
X54062380Y-29099047D02*
X54062380Y-29003809D01*
X54110000Y-28908571D01*
X54157619Y-28860952D01*
X54252857Y-28813333D01*
X54443333Y-28765714D01*
X54681428Y-28765714D01*
X54871904Y-28813333D01*
X54967142Y-28860952D01*
X55014761Y-28908571D01*
X55062380Y-29003809D01*
X55062380Y-29099047D01*
X55014761Y-29194285D01*
X54967142Y-29241904D01*
X54871904Y-29289523D01*
X54681428Y-29337142D01*
X54443333Y-29337142D01*
X54252857Y-29289523D01*
X54157619Y-29241904D01*
X54110000Y-29194285D01*
X54062380Y-29099047D01*
X36330000Y-31622857D02*
X36282380Y-31718095D01*
X36282380Y-31860952D01*
X36330000Y-32003809D01*
X36425238Y-32099047D01*
X36520476Y-32146666D01*
X36710952Y-32194285D01*
X36853809Y-32194285D01*
X37044285Y-32146666D01*
X37139523Y-32099047D01*
X37234761Y-32003809D01*
X37282380Y-31860952D01*
X37282380Y-31765714D01*
X37234761Y-31622857D01*
X37187142Y-31575238D01*
X36853809Y-31575238D01*
X36853809Y-31765714D01*
X37282380Y-31146666D02*
X36282380Y-31146666D01*
X36282380Y-30765714D01*
X36330000Y-30670476D01*
X36377619Y-30622857D01*
X36472857Y-30575238D01*
X36615714Y-30575238D01*
X36710952Y-30622857D01*
X36758571Y-30670476D01*
X36806190Y-30765714D01*
X36806190Y-31146666D01*
X36996666Y-30194285D02*
X36996666Y-29718095D01*
X37282380Y-30289523D02*
X36282380Y-29956190D01*
X37282380Y-29622857D01*
X36282380Y-29384761D02*
X36282380Y-28718095D01*
X37282380Y-29146666D01*
X32258095Y-71955000D02*
X32162857Y-71907380D01*
X32020000Y-71907380D01*
X31877142Y-71955000D01*
X31781904Y-72050238D01*
X31734285Y-72145476D01*
X31686666Y-72335952D01*
X31686666Y-72478809D01*
X31734285Y-72669285D01*
X31781904Y-72764523D01*
X31877142Y-72859761D01*
X32020000Y-72907380D01*
X32115238Y-72907380D01*
X32258095Y-72859761D01*
X32305714Y-72812142D01*
X32305714Y-72478809D01*
X32115238Y-72478809D01*
X32734285Y-72907380D02*
X32734285Y-71907380D01*
X33305714Y-72907380D01*
X33305714Y-71907380D01*
X33781904Y-72907380D02*
X33781904Y-71907380D01*
X34020000Y-71907380D01*
X34162857Y-71955000D01*
X34258095Y-72050238D01*
X34305714Y-72145476D01*
X34353333Y-72335952D01*
X34353333Y-72478809D01*
X34305714Y-72669285D01*
X34258095Y-72764523D01*
X34162857Y-72859761D01*
X34020000Y-72907380D01*
X33781904Y-72907380D01*
X31734285Y-77476428D02*
X32496190Y-77476428D01*
X32115238Y-77857380D02*
X32115238Y-77095476D01*
X33448571Y-76857380D02*
X32972380Y-76857380D01*
X32924761Y-77333571D01*
X32972380Y-77285952D01*
X33067619Y-77238333D01*
X33305714Y-77238333D01*
X33400952Y-77285952D01*
X33448571Y-77333571D01*
X33496190Y-77428809D01*
X33496190Y-77666904D01*
X33448571Y-77762142D01*
X33400952Y-77809761D01*
X33305714Y-77857380D01*
X33067619Y-77857380D01*
X32972380Y-77809761D01*
X32924761Y-77762142D01*
X33781904Y-76857380D02*
X34115238Y-77857380D01*
X34448571Y-76857380D01*
X32258095Y-89735000D02*
X32162857Y-89687380D01*
X32020000Y-89687380D01*
X31877142Y-89735000D01*
X31781904Y-89830238D01*
X31734285Y-89925476D01*
X31686666Y-90115952D01*
X31686666Y-90258809D01*
X31734285Y-90449285D01*
X31781904Y-90544523D01*
X31877142Y-90639761D01*
X32020000Y-90687380D01*
X32115238Y-90687380D01*
X32258095Y-90639761D01*
X32305714Y-90592142D01*
X32305714Y-90258809D01*
X32115238Y-90258809D01*
X32734285Y-90687380D02*
X32734285Y-89687380D01*
X33305714Y-90687380D01*
X33305714Y-89687380D01*
X33781904Y-90687380D02*
X33781904Y-89687380D01*
X34020000Y-89687380D01*
X34162857Y-89735000D01*
X34258095Y-89830238D01*
X34305714Y-89925476D01*
X34353333Y-90115952D01*
X34353333Y-90258809D01*
X34305714Y-90449285D01*
X34258095Y-90544523D01*
X34162857Y-90639761D01*
X34020000Y-90687380D01*
X33781904Y-90687380D01*
X31734285Y-95256428D02*
X32496190Y-95256428D01*
X32115238Y-95637380D02*
X32115238Y-94875476D01*
X33448571Y-94637380D02*
X32972380Y-94637380D01*
X32924761Y-95113571D01*
X32972380Y-95065952D01*
X33067619Y-95018333D01*
X33305714Y-95018333D01*
X33400952Y-95065952D01*
X33448571Y-95113571D01*
X33496190Y-95208809D01*
X33496190Y-95446904D01*
X33448571Y-95542142D01*
X33400952Y-95589761D01*
X33305714Y-95637380D01*
X33067619Y-95637380D01*
X32972380Y-95589761D01*
X32924761Y-95542142D01*
X33781904Y-94637380D02*
X34115238Y-95637380D01*
X34448571Y-94637380D01*
X32258095Y-107515000D02*
X32162857Y-107467380D01*
X32020000Y-107467380D01*
X31877142Y-107515000D01*
X31781904Y-107610238D01*
X31734285Y-107705476D01*
X31686666Y-107895952D01*
X31686666Y-108038809D01*
X31734285Y-108229285D01*
X31781904Y-108324523D01*
X31877142Y-108419761D01*
X32020000Y-108467380D01*
X32115238Y-108467380D01*
X32258095Y-108419761D01*
X32305714Y-108372142D01*
X32305714Y-108038809D01*
X32115238Y-108038809D01*
X32734285Y-108467380D02*
X32734285Y-107467380D01*
X33305714Y-108467380D01*
X33305714Y-107467380D01*
X33781904Y-108467380D02*
X33781904Y-107467380D01*
X34020000Y-107467380D01*
X34162857Y-107515000D01*
X34258095Y-107610238D01*
X34305714Y-107705476D01*
X34353333Y-107895952D01*
X34353333Y-108038809D01*
X34305714Y-108229285D01*
X34258095Y-108324523D01*
X34162857Y-108419761D01*
X34020000Y-108467380D01*
X33781904Y-108467380D01*
X31734285Y-113036428D02*
X32496190Y-113036428D01*
X32115238Y-113417380D02*
X32115238Y-112655476D01*
X33448571Y-112417380D02*
X32972380Y-112417380D01*
X32924761Y-112893571D01*
X32972380Y-112845952D01*
X33067619Y-112798333D01*
X33305714Y-112798333D01*
X33400952Y-112845952D01*
X33448571Y-112893571D01*
X33496190Y-112988809D01*
X33496190Y-113226904D01*
X33448571Y-113322142D01*
X33400952Y-113369761D01*
X33305714Y-113417380D01*
X33067619Y-113417380D01*
X32972380Y-113369761D01*
X32924761Y-113322142D01*
X33781904Y-112417380D02*
X34115238Y-113417380D01*
X34448571Y-112417380D01*
X32258095Y-125295000D02*
X32162857Y-125247380D01*
X32020000Y-125247380D01*
X31877142Y-125295000D01*
X31781904Y-125390238D01*
X31734285Y-125485476D01*
X31686666Y-125675952D01*
X31686666Y-125818809D01*
X31734285Y-126009285D01*
X31781904Y-126104523D01*
X31877142Y-126199761D01*
X32020000Y-126247380D01*
X32115238Y-126247380D01*
X32258095Y-126199761D01*
X32305714Y-126152142D01*
X32305714Y-125818809D01*
X32115238Y-125818809D01*
X32734285Y-126247380D02*
X32734285Y-125247380D01*
X33305714Y-126247380D01*
X33305714Y-125247380D01*
X33781904Y-126247380D02*
X33781904Y-125247380D01*
X34020000Y-125247380D01*
X34162857Y-125295000D01*
X34258095Y-125390238D01*
X34305714Y-125485476D01*
X34353333Y-125675952D01*
X34353333Y-125818809D01*
X34305714Y-126009285D01*
X34258095Y-126104523D01*
X34162857Y-126199761D01*
X34020000Y-126247380D01*
X33781904Y-126247380D01*
X31734285Y-130816428D02*
X32496190Y-130816428D01*
X32115238Y-131197380D02*
X32115238Y-130435476D01*
X33448571Y-130197380D02*
X32972380Y-130197380D01*
X32924761Y-130673571D01*
X32972380Y-130625952D01*
X33067619Y-130578333D01*
X33305714Y-130578333D01*
X33400952Y-130625952D01*
X33448571Y-130673571D01*
X33496190Y-130768809D01*
X33496190Y-131006904D01*
X33448571Y-131102142D01*
X33400952Y-131149761D01*
X33305714Y-131197380D01*
X33067619Y-131197380D01*
X32972380Y-131149761D01*
X32924761Y-131102142D01*
X33781904Y-130197380D02*
X34115238Y-131197380D01*
X34448571Y-130197380D01*
X221488095Y-115200000D02*
X221392857Y-115152380D01*
X221250000Y-115152380D01*
X221107142Y-115200000D01*
X221011904Y-115295238D01*
X220964285Y-115390476D01*
X220916666Y-115580952D01*
X220916666Y-115723809D01*
X220964285Y-115914285D01*
X221011904Y-116009523D01*
X221107142Y-116104761D01*
X221250000Y-116152380D01*
X221345238Y-116152380D01*
X221488095Y-116104761D01*
X221535714Y-116057142D01*
X221535714Y-115723809D01*
X221345238Y-115723809D01*
X221964285Y-116152380D02*
X221964285Y-115152380D01*
X222535714Y-116152380D01*
X222535714Y-115152380D01*
X223011904Y-116152380D02*
X223011904Y-115152380D01*
X223250000Y-115152380D01*
X223392857Y-115200000D01*
X223488095Y-115295238D01*
X223535714Y-115390476D01*
X223583333Y-115580952D01*
X223583333Y-115723809D01*
X223535714Y-115914285D01*
X223488095Y-116009523D01*
X223392857Y-116104761D01*
X223250000Y-116152380D01*
X223011904Y-116152380D01*
X220750000Y-121102380D02*
X220750000Y-120102380D01*
X220988095Y-120102380D01*
X221130952Y-120150000D01*
X221226190Y-120245238D01*
X221273809Y-120340476D01*
X221321428Y-120530952D01*
X221321428Y-120673809D01*
X221273809Y-120864285D01*
X221226190Y-120959523D01*
X221130952Y-121054761D01*
X220988095Y-121102380D01*
X220750000Y-121102380D01*
X221702380Y-120816666D02*
X222178571Y-120816666D01*
X221607142Y-121102380D02*
X221940476Y-120102380D01*
X222273809Y-121102380D01*
X222464285Y-120102380D02*
X223035714Y-120102380D01*
X222750000Y-121102380D02*
X222750000Y-120102380D01*
X223321428Y-120816666D02*
X223797619Y-120816666D01*
X223226190Y-121102380D02*
X223559523Y-120102380D01*
X223892857Y-121102380D01*
X220964285Y-125671428D02*
X221726190Y-125671428D01*
X221345238Y-126052380D02*
X221345238Y-125290476D01*
X222678571Y-125052380D02*
X222202380Y-125052380D01*
X222154761Y-125528571D01*
X222202380Y-125480952D01*
X222297619Y-125433333D01*
X222535714Y-125433333D01*
X222630952Y-125480952D01*
X222678571Y-125528571D01*
X222726190Y-125623809D01*
X222726190Y-125861904D01*
X222678571Y-125957142D01*
X222630952Y-126004761D01*
X222535714Y-126052380D01*
X222297619Y-126052380D01*
X222202380Y-126004761D01*
X222154761Y-125957142D01*
X223011904Y-125052380D02*
X223345238Y-126052380D01*
X223678571Y-125052380D01*
X221488095Y-79640000D02*
X221392857Y-79592380D01*
X221250000Y-79592380D01*
X221107142Y-79640000D01*
X221011904Y-79735238D01*
X220964285Y-79830476D01*
X220916666Y-80020952D01*
X220916666Y-80163809D01*
X220964285Y-80354285D01*
X221011904Y-80449523D01*
X221107142Y-80544761D01*
X221250000Y-80592380D01*
X221345238Y-80592380D01*
X221488095Y-80544761D01*
X221535714Y-80497142D01*
X221535714Y-80163809D01*
X221345238Y-80163809D01*
X221964285Y-80592380D02*
X221964285Y-79592380D01*
X222535714Y-80592380D01*
X222535714Y-79592380D01*
X223011904Y-80592380D02*
X223011904Y-79592380D01*
X223250000Y-79592380D01*
X223392857Y-79640000D01*
X223488095Y-79735238D01*
X223535714Y-79830476D01*
X223583333Y-80020952D01*
X223583333Y-80163809D01*
X223535714Y-80354285D01*
X223488095Y-80449523D01*
X223392857Y-80544761D01*
X223250000Y-80592380D01*
X223011904Y-80592380D01*
X220750000Y-85542380D02*
X220750000Y-84542380D01*
X220988095Y-84542380D01*
X221130952Y-84590000D01*
X221226190Y-84685238D01*
X221273809Y-84780476D01*
X221321428Y-84970952D01*
X221321428Y-85113809D01*
X221273809Y-85304285D01*
X221226190Y-85399523D01*
X221130952Y-85494761D01*
X220988095Y-85542380D01*
X220750000Y-85542380D01*
X221702380Y-85256666D02*
X222178571Y-85256666D01*
X221607142Y-85542380D02*
X221940476Y-84542380D01*
X222273809Y-85542380D01*
X222464285Y-84542380D02*
X223035714Y-84542380D01*
X222750000Y-85542380D02*
X222750000Y-84542380D01*
X223321428Y-85256666D02*
X223797619Y-85256666D01*
X223226190Y-85542380D02*
X223559523Y-84542380D01*
X223892857Y-85542380D01*
X220964285Y-90111428D02*
X221726190Y-90111428D01*
X221345238Y-90492380D02*
X221345238Y-89730476D01*
X222678571Y-89492380D02*
X222202380Y-89492380D01*
X222154761Y-89968571D01*
X222202380Y-89920952D01*
X222297619Y-89873333D01*
X222535714Y-89873333D01*
X222630952Y-89920952D01*
X222678571Y-89968571D01*
X222726190Y-90063809D01*
X222726190Y-90301904D01*
X222678571Y-90397142D01*
X222630952Y-90444761D01*
X222535714Y-90492380D01*
X222297619Y-90492380D01*
X222202380Y-90444761D01*
X222154761Y-90397142D01*
X223011904Y-89492380D02*
X223345238Y-90492380D01*
X223678571Y-89492380D01*
D11*
%TO.C,U6*%
X145360000Y-86955000D02*
X145360000Y-114855000D01*
X90960000Y-86955000D02*
X145360000Y-86955000D01*
X90960000Y-114855000D02*
X90960000Y-86955000D01*
X145360000Y-114855000D02*
X90960000Y-114855000D01*
D12*
%TO.C,D0*%
X56910000Y-89520000D02*
X56910000Y-93360000D01*
X57150000Y-89520000D02*
X57150000Y-93360000D01*
X57030000Y-89520000D02*
X57030000Y-93360000D01*
X63610000Y-93360000D02*
X63610000Y-92880000D01*
X55770000Y-93360000D02*
X63610000Y-93360000D01*
X55770000Y-92880000D02*
X55770000Y-93360000D01*
X63610000Y-89520000D02*
X63610000Y-90000000D01*
X55770000Y-89520000D02*
X63610000Y-89520000D01*
X55770000Y-90000000D02*
X55770000Y-89520000D01*
%TO.C,C0*%
X55697867Y-100600000D02*
X55697867Y-101650000D01*
X55172867Y-101125000D02*
X56222867Y-101125000D01*
X66290000Y-104140000D02*
G75*
G03*
X66290000Y-104140000I-5370000J0D01*
G01*
D11*
%TO.C,U2*%
X38100000Y-54670000D02*
X38100000Y-62170000D01*
X73660000Y-54670000D02*
X73660000Y-62170000D01*
X38100000Y-62170000D02*
X38354000Y-62170000D01*
X38100000Y-54670000D02*
X38354000Y-54670000D01*
X73660000Y-62170000D02*
X73406000Y-62170000D01*
X73660000Y-54670000D02*
X73406000Y-54670000D01*
D13*
X39435700Y-64134420D02*
G75*
G03*
X39435700Y-64134420I-100000J0D01*
G01*
D11*
%TO.C,U5*%
X184150000Y-54670000D02*
X184150000Y-62170000D01*
X219710000Y-54670000D02*
X219710000Y-62170000D01*
X184150000Y-62170000D02*
X184404000Y-62170000D01*
X184150000Y-54670000D02*
X184404000Y-54670000D01*
X219710000Y-62170000D02*
X219456000Y-62170000D01*
X219710000Y-54670000D02*
X219456000Y-54670000D01*
D13*
X185485700Y-64134420D02*
G75*
G03*
X185485700Y-64134420I-100000J0D01*
G01*
D11*
%TO.C,U4*%
X137160000Y-54670000D02*
X137160000Y-62170000D01*
X172720000Y-54670000D02*
X172720000Y-62170000D01*
X137160000Y-62170000D02*
X137414000Y-62170000D01*
X137160000Y-54670000D02*
X137414000Y-54670000D01*
X172720000Y-62170000D02*
X172466000Y-62170000D01*
X172720000Y-54670000D02*
X172466000Y-54670000D01*
D13*
X138495700Y-64134420D02*
G75*
G03*
X138495700Y-64134420I-100000J0D01*
G01*
D11*
%TO.C,U3*%
X85090000Y-54670000D02*
X85090000Y-62170000D01*
X120650000Y-54670000D02*
X120650000Y-62170000D01*
X85090000Y-62170000D02*
X85344000Y-62170000D01*
X85090000Y-54670000D02*
X85344000Y-54670000D01*
X120650000Y-62170000D02*
X120396000Y-62170000D01*
X120650000Y-54670000D02*
X120396000Y-54670000D01*
D13*
X86425700Y-64134420D02*
G75*
G03*
X86425700Y-64134420I-100000J0D01*
G01*
D14*
%TO.C,U1*%
X184861200Y-101701600D02*
X184861200Y-100736400D01*
X178358800Y-120243600D02*
X184861200Y-120243600D01*
X184861200Y-120243600D02*
X184861200Y-119278400D01*
X184861200Y-100736400D02*
X181914800Y-100736400D01*
X181914800Y-100736400D02*
X181305200Y-100736400D01*
X181305200Y-100736400D02*
X178358800Y-100736400D01*
X178358800Y-100736400D02*
X178358800Y-101574600D01*
X178358800Y-119278400D02*
X178358800Y-120243600D01*
X181914800Y-100736400D02*
G75*
G02*
X181305200Y-100736400I-304800J0D01*
G01*
D12*
%TO.C,J00_IN1*%
X66040000Y-151130000D02*
X55880000Y-151130000D01*
X66040000Y-152400000D02*
X66040000Y-144780000D01*
X66040000Y-144780000D02*
X55880000Y-144780000D01*
X55880000Y-144780000D02*
X55880000Y-152400000D01*
X55880000Y-152400000D02*
X66040000Y-152400000D01*
%TO.C,J13*%
X129600000Y-141030000D02*
X129600000Y-138370000D01*
X106680000Y-141030000D02*
X129600000Y-141030000D01*
X106680000Y-138370000D02*
X129600000Y-138370000D01*
X106680000Y-141030000D02*
X106680000Y-138370000D01*
X105410000Y-141030000D02*
X104080000Y-141030000D01*
X104080000Y-141030000D02*
X104080000Y-139700000D01*
%TO.C,J12*%
X181550000Y-32960000D02*
X181550000Y-35620000D01*
X219710000Y-32960000D02*
X181550000Y-32960000D01*
X219710000Y-35620000D02*
X181550000Y-35620000D01*
X219710000Y-32960000D02*
X219710000Y-35620000D01*
X220980000Y-32960000D02*
X222310000Y-32960000D01*
X222310000Y-32960000D02*
X222310000Y-34290000D01*
%TO.C,J11*%
X133290000Y-32960000D02*
X133290000Y-35620000D01*
X171450000Y-32960000D02*
X133290000Y-32960000D01*
X171450000Y-35620000D02*
X133290000Y-35620000D01*
X171450000Y-32960000D02*
X171450000Y-35620000D01*
X172720000Y-32960000D02*
X174050000Y-32960000D01*
X174050000Y-32960000D02*
X174050000Y-34290000D01*
%TO.C,J10*%
X82490000Y-32960000D02*
X82490000Y-35620000D01*
X120650000Y-32960000D02*
X82490000Y-32960000D01*
X120650000Y-35620000D02*
X82490000Y-35620000D01*
X120650000Y-32960000D02*
X120650000Y-35620000D01*
X121920000Y-32960000D02*
X123250000Y-32960000D01*
X123250000Y-32960000D02*
X123250000Y-34290000D01*
%TO.C,J9*%
X35500000Y-32960000D02*
X35500000Y-35620000D01*
X73660000Y-32960000D02*
X35500000Y-32960000D01*
X73660000Y-35620000D02*
X35500000Y-35620000D01*
X73660000Y-32960000D02*
X73660000Y-35620000D01*
X74930000Y-32960000D02*
X76260000Y-32960000D01*
X76260000Y-32960000D02*
X76260000Y-34290000D01*
%TO.C,J8*%
X43180000Y-69850000D02*
X43180000Y-80010000D01*
X44450000Y-69850000D02*
X36830000Y-69850000D01*
X36830000Y-69850000D02*
X36830000Y-80010000D01*
X36830000Y-80010000D02*
X44450000Y-80010000D01*
X44450000Y-80010000D02*
X44450000Y-69850000D01*
%TO.C,J7*%
X43180000Y-87630000D02*
X43180000Y-97790000D01*
X44450000Y-87630000D02*
X36830000Y-87630000D01*
X36830000Y-87630000D02*
X36830000Y-97790000D01*
X36830000Y-97790000D02*
X44450000Y-97790000D01*
X44450000Y-97790000D02*
X44450000Y-87630000D01*
%TO.C,J6*%
X43180000Y-105410000D02*
X43180000Y-115570000D01*
X44450000Y-105410000D02*
X36830000Y-105410000D01*
X36830000Y-105410000D02*
X36830000Y-115570000D01*
X36830000Y-115570000D02*
X44450000Y-115570000D01*
X44450000Y-115570000D02*
X44450000Y-105410000D01*
%TO.C,J5*%
X43180000Y-123190000D02*
X43180000Y-133350000D01*
X44450000Y-123190000D02*
X36830000Y-123190000D01*
X36830000Y-123190000D02*
X36830000Y-133350000D01*
X36830000Y-133350000D02*
X44450000Y-133350000D01*
X44450000Y-133350000D02*
X44450000Y-123190000D01*
%TO.C,J4*%
X215900000Y-146050000D02*
X208280000Y-146050000D01*
X215900000Y-130810000D02*
X208280000Y-130810000D01*
X214630000Y-146050000D02*
X214630000Y-130810000D01*
X208280000Y-146050000D02*
X208280000Y-130810000D01*
X215900000Y-146050000D02*
X215900000Y-130810000D01*
%TO.C,J2*%
X215900000Y-128270000D02*
X208280000Y-128270000D01*
X215900000Y-113030000D02*
X208280000Y-113030000D01*
X214630000Y-128270000D02*
X214630000Y-113030000D01*
X208280000Y-128270000D02*
X208280000Y-113030000D01*
X215900000Y-128270000D02*
X215900000Y-113030000D01*
%TO.C,J1*%
X215900000Y-110490000D02*
X208280000Y-110490000D01*
X215900000Y-95250000D02*
X208280000Y-95250000D01*
X214630000Y-110490000D02*
X214630000Y-95250000D01*
X208280000Y-110490000D02*
X208280000Y-95250000D01*
X215900000Y-110490000D02*
X215900000Y-95250000D01*
%TO.C,J0*%
X215900000Y-92710000D02*
X208280000Y-92710000D01*
X215900000Y-77470000D02*
X208280000Y-77470000D01*
X214630000Y-92710000D02*
X214630000Y-77470000D01*
X208280000Y-92710000D02*
X208280000Y-77470000D01*
X215900000Y-92710000D02*
X215900000Y-77470000D01*
%TO.C,F0*%
X53510000Y-136910000D02*
X56670000Y-136910000D01*
X60170000Y-136910000D02*
X63330000Y-136910000D01*
X60170000Y-114190000D02*
X63330000Y-114190000D01*
X63330000Y-114190000D02*
X63330000Y-136910000D01*
X53510000Y-114190000D02*
X53510000Y-136910000D01*
X53510000Y-114190000D02*
X56670000Y-114190000D01*
%TO.C,U6*%
D10*
X89116124Y-112496373D02*
X89925960Y-112496373D01*
X90021235Y-112448736D01*
X90068873Y-112401099D01*
X90116510Y-112305824D01*
X90116510Y-112115274D01*
X90068873Y-112019999D01*
X90021235Y-111972362D01*
X89925960Y-111924724D01*
X89116124Y-111924724D01*
X89116124Y-111019613D02*
X89116124Y-111210163D01*
X89163762Y-111305438D01*
X89211399Y-111353075D01*
X89354311Y-111448350D01*
X89544861Y-111495987D01*
X89925960Y-111495987D01*
X90021235Y-111448350D01*
X90068873Y-111400713D01*
X90116510Y-111305438D01*
X90116510Y-111114888D01*
X90068873Y-111019613D01*
X90021235Y-110971976D01*
X89925960Y-110924338D01*
X89687773Y-110924338D01*
X89592498Y-110971976D01*
X89544861Y-111019613D01*
X89497224Y-111114888D01*
X89497224Y-111305438D01*
X89544861Y-111400713D01*
X89592498Y-111448350D01*
X89687773Y-111495987D01*
%TO.C,D0*%
X58951904Y-88972380D02*
X58951904Y-87972380D01*
X59190000Y-87972380D01*
X59332857Y-88020000D01*
X59428095Y-88115238D01*
X59475714Y-88210476D01*
X59523333Y-88400952D01*
X59523333Y-88543809D01*
X59475714Y-88734285D01*
X59428095Y-88829523D01*
X59332857Y-88924761D01*
X59190000Y-88972380D01*
X58951904Y-88972380D01*
X60142380Y-87972380D02*
X60237619Y-87972380D01*
X60332857Y-88020000D01*
X60380476Y-88067619D01*
X60428095Y-88162857D01*
X60475714Y-88353333D01*
X60475714Y-88591428D01*
X60428095Y-88781904D01*
X60380476Y-88877142D01*
X60332857Y-88924761D01*
X60237619Y-88972380D01*
X60142380Y-88972380D01*
X60047142Y-88924761D01*
X59999523Y-88877142D01*
X59951904Y-88781904D01*
X59904285Y-88591428D01*
X59904285Y-88353333D01*
X59951904Y-88162857D01*
X59999523Y-88067619D01*
X60047142Y-88020000D01*
X60142380Y-87972380D01*
X54348095Y-89692380D02*
X54348095Y-88692380D01*
X54919523Y-89692380D02*
X54490952Y-89120952D01*
X54919523Y-88692380D02*
X54348095Y-89263809D01*
%TO.C,C0*%
X60753333Y-97997142D02*
X60705714Y-98044761D01*
X60562857Y-98092380D01*
X60467619Y-98092380D01*
X60324761Y-98044761D01*
X60229523Y-97949523D01*
X60181904Y-97854285D01*
X60134285Y-97663809D01*
X60134285Y-97520952D01*
X60181904Y-97330476D01*
X60229523Y-97235238D01*
X60324761Y-97140000D01*
X60467619Y-97092380D01*
X60562857Y-97092380D01*
X60705714Y-97140000D01*
X60753333Y-97187619D01*
X61372380Y-97092380D02*
X61467619Y-97092380D01*
X61562857Y-97140000D01*
X61610476Y-97187619D01*
X61658095Y-97282857D01*
X61705714Y-97473333D01*
X61705714Y-97711428D01*
X61658095Y-97901904D01*
X61610476Y-97997142D01*
X61562857Y-98044761D01*
X61467619Y-98092380D01*
X61372380Y-98092380D01*
X61277142Y-98044761D01*
X61229523Y-97997142D01*
X61181904Y-97901904D01*
X61134285Y-97711428D01*
X61134285Y-97473333D01*
X61181904Y-97282857D01*
X61229523Y-97187619D01*
X61277142Y-97140000D01*
X61372380Y-97092380D01*
%TO.C,U2*%
X35782902Y-59804560D02*
X36918173Y-59804560D01*
X37051735Y-59737780D01*
X37118515Y-59670999D01*
X37185296Y-59537438D01*
X37185296Y-59270315D01*
X37118515Y-59136754D01*
X37051735Y-59069973D01*
X36918173Y-59003192D01*
X35782902Y-59003192D01*
X35916463Y-58402166D02*
X35849683Y-58335386D01*
X35782902Y-58201824D01*
X35782902Y-57867921D01*
X35849683Y-57734360D01*
X35916463Y-57667579D01*
X36050025Y-57600798D01*
X36183586Y-57600798D01*
X36383928Y-57667579D01*
X37185296Y-58468947D01*
X37185296Y-57600798D01*
X47531728Y-66674373D02*
X47531728Y-65272074D01*
X47999161Y-66273716D01*
X48466594Y-65272074D01*
X48466594Y-66674373D01*
X49935670Y-66540821D02*
X49868893Y-66607597D01*
X49668565Y-66674373D01*
X49535013Y-66674373D01*
X49334684Y-66607597D01*
X49201132Y-66474044D01*
X49134356Y-66340492D01*
X49067580Y-66073388D01*
X49067580Y-65873059D01*
X49134356Y-65605955D01*
X49201132Y-65472402D01*
X49334684Y-65338850D01*
X49535013Y-65272074D01*
X49668565Y-65272074D01*
X49868893Y-65338850D01*
X49935670Y-65405626D01*
X50536655Y-66674373D02*
X50536655Y-65272074D01*
X51070864Y-65272074D01*
X51204416Y-65338850D01*
X51271192Y-65405626D01*
X51337969Y-65539178D01*
X51337969Y-65739507D01*
X51271192Y-65873059D01*
X51204416Y-65939835D01*
X51070864Y-66006611D01*
X50536655Y-66006611D01*
X51872178Y-65405626D02*
X51938954Y-65338850D01*
X52072506Y-65272074D01*
X52406387Y-65272074D01*
X52539939Y-65338850D01*
X52606715Y-65405626D01*
X52673491Y-65539178D01*
X52673491Y-65672731D01*
X52606715Y-65873059D01*
X51805402Y-66674373D01*
X52673491Y-66674373D01*
X53140924Y-65272074D02*
X54009014Y-65272074D01*
X53541581Y-65806283D01*
X53741910Y-65806283D01*
X53875462Y-65873059D01*
X53942238Y-65939835D01*
X54009014Y-66073388D01*
X54009014Y-66407268D01*
X53942238Y-66540821D01*
X53875462Y-66607597D01*
X53741910Y-66674373D01*
X53341253Y-66674373D01*
X53207701Y-66607597D01*
X53140924Y-66540821D01*
X54877104Y-65272074D02*
X55010656Y-65272074D01*
X55144209Y-65338850D01*
X55210985Y-65405626D01*
X55277761Y-65539178D01*
X55344537Y-65806283D01*
X55344537Y-66140164D01*
X55277761Y-66407268D01*
X55210985Y-66540821D01*
X55144209Y-66607597D01*
X55010656Y-66674373D01*
X54877104Y-66674373D01*
X54743552Y-66607597D01*
X54676776Y-66540821D01*
X54610000Y-66407268D01*
X54543223Y-66140164D01*
X54543223Y-65806283D01*
X54610000Y-65539178D01*
X54676776Y-65405626D01*
X54743552Y-65338850D01*
X54877104Y-65272074D01*
X56680060Y-66674373D02*
X55878746Y-66674373D01*
X56279403Y-66674373D02*
X56279403Y-65272074D01*
X56145851Y-65472402D01*
X56012299Y-65605955D01*
X55878746Y-65672731D01*
X57147493Y-65272074D02*
X58082359Y-65272074D01*
X57481374Y-66674373D01*
X58282687Y-66807925D02*
X59351106Y-66807925D01*
X59618210Y-66607597D02*
X59818539Y-66674373D01*
X60152419Y-66674373D01*
X60285972Y-66607597D01*
X60352748Y-66540821D01*
X60419524Y-66407268D01*
X60419524Y-66273716D01*
X60352748Y-66140164D01*
X60285972Y-66073388D01*
X60152419Y-66006611D01*
X59885315Y-65939835D01*
X59751763Y-65873059D01*
X59684986Y-65806283D01*
X59618210Y-65672731D01*
X59618210Y-65539178D01*
X59684986Y-65405626D01*
X59751763Y-65338850D01*
X59885315Y-65272074D01*
X60219196Y-65272074D01*
X60419524Y-65338850D01*
X60953733Y-66607597D02*
X61154062Y-66674373D01*
X61487942Y-66674373D01*
X61621495Y-66607597D01*
X61688271Y-66540821D01*
X61755047Y-66407268D01*
X61755047Y-66273716D01*
X61688271Y-66140164D01*
X61621495Y-66073388D01*
X61487942Y-66006611D01*
X61220838Y-65939835D01*
X61087285Y-65873059D01*
X61020509Y-65806283D01*
X60953733Y-65672731D01*
X60953733Y-65539178D01*
X61020509Y-65405626D01*
X61087285Y-65338850D01*
X61220838Y-65272074D01*
X61554718Y-65272074D01*
X61755047Y-65338850D01*
%TO.C, *%
%TO.C,U5*%
X181832902Y-59804560D02*
X182968173Y-59804560D01*
X183101735Y-59737780D01*
X183168515Y-59670999D01*
X183235296Y-59537438D01*
X183235296Y-59270315D01*
X183168515Y-59136754D01*
X183101735Y-59069973D01*
X182968173Y-59003192D01*
X181832902Y-59003192D01*
X181832902Y-57667579D02*
X181832902Y-58335386D01*
X182500709Y-58402166D01*
X182433928Y-58335386D01*
X182367147Y-58201824D01*
X182367147Y-57867921D01*
X182433928Y-57734360D01*
X182500709Y-57667579D01*
X182634270Y-57600798D01*
X182968173Y-57600798D01*
X183101735Y-57667579D01*
X183168515Y-57734360D01*
X183235296Y-57867921D01*
X183235296Y-58201824D01*
X183168515Y-58335386D01*
X183101735Y-58402166D01*
X194851728Y-66674373D02*
X194851728Y-65272074D01*
X195319161Y-66273716D01*
X195786594Y-65272074D01*
X195786594Y-66674373D01*
X197255670Y-66540821D02*
X197188893Y-66607597D01*
X196988565Y-66674373D01*
X196855013Y-66674373D01*
X196654684Y-66607597D01*
X196521132Y-66474044D01*
X196454356Y-66340492D01*
X196387580Y-66073388D01*
X196387580Y-65873059D01*
X196454356Y-65605955D01*
X196521132Y-65472402D01*
X196654684Y-65338850D01*
X196855013Y-65272074D01*
X196988565Y-65272074D01*
X197188893Y-65338850D01*
X197255670Y-65405626D01*
X197856655Y-66674373D02*
X197856655Y-65272074D01*
X198390864Y-65272074D01*
X198524416Y-65338850D01*
X198591192Y-65405626D01*
X198657969Y-65539178D01*
X198657969Y-65739507D01*
X198591192Y-65873059D01*
X198524416Y-65939835D01*
X198390864Y-66006611D01*
X197856655Y-66006611D01*
X199192178Y-65405626D02*
X199258954Y-65338850D01*
X199392506Y-65272074D01*
X199726387Y-65272074D01*
X199859939Y-65338850D01*
X199926715Y-65405626D01*
X199993491Y-65539178D01*
X199993491Y-65672731D01*
X199926715Y-65873059D01*
X199125402Y-66674373D01*
X199993491Y-66674373D01*
X200460924Y-65272074D02*
X201329014Y-65272074D01*
X200861581Y-65806283D01*
X201061910Y-65806283D01*
X201195462Y-65873059D01*
X201262238Y-65939835D01*
X201329014Y-66073388D01*
X201329014Y-66407268D01*
X201262238Y-66540821D01*
X201195462Y-66607597D01*
X201061910Y-66674373D01*
X200661253Y-66674373D01*
X200527701Y-66607597D01*
X200460924Y-66540821D01*
X202197104Y-65272074D02*
X202330656Y-65272074D01*
X202464209Y-65338850D01*
X202530985Y-65405626D01*
X202597761Y-65539178D01*
X202664537Y-65806283D01*
X202664537Y-66140164D01*
X202597761Y-66407268D01*
X202530985Y-66540821D01*
X202464209Y-66607597D01*
X202330656Y-66674373D01*
X202197104Y-66674373D01*
X202063552Y-66607597D01*
X201996776Y-66540821D01*
X201930000Y-66407268D01*
X201863223Y-66140164D01*
X201863223Y-65806283D01*
X201930000Y-65539178D01*
X201996776Y-65405626D01*
X202063552Y-65338850D01*
X202197104Y-65272074D01*
X204000060Y-66674373D02*
X203198746Y-66674373D01*
X203599403Y-66674373D02*
X203599403Y-65272074D01*
X203465851Y-65472402D01*
X203332299Y-65605955D01*
X203198746Y-65672731D01*
X204467493Y-65272074D02*
X205402359Y-65272074D01*
X204801374Y-66674373D01*
X205602687Y-66807925D02*
X206671106Y-66807925D01*
X206938210Y-66607597D02*
X207138539Y-66674373D01*
X207472419Y-66674373D01*
X207605972Y-66607597D01*
X207672748Y-66540821D01*
X207739524Y-66407268D01*
X207739524Y-66273716D01*
X207672748Y-66140164D01*
X207605972Y-66073388D01*
X207472419Y-66006611D01*
X207205315Y-65939835D01*
X207071763Y-65873059D01*
X207004986Y-65806283D01*
X206938210Y-65672731D01*
X206938210Y-65539178D01*
X207004986Y-65405626D01*
X207071763Y-65338850D01*
X207205315Y-65272074D01*
X207539196Y-65272074D01*
X207739524Y-65338850D01*
X208273733Y-66607597D02*
X208474062Y-66674373D01*
X208807942Y-66674373D01*
X208941495Y-66607597D01*
X209008271Y-66540821D01*
X209075047Y-66407268D01*
X209075047Y-66273716D01*
X209008271Y-66140164D01*
X208941495Y-66073388D01*
X208807942Y-66006611D01*
X208540838Y-65939835D01*
X208407285Y-65873059D01*
X208340509Y-65806283D01*
X208273733Y-65672731D01*
X208273733Y-65539178D01*
X208340509Y-65405626D01*
X208407285Y-65338850D01*
X208540838Y-65272074D01*
X208874718Y-65272074D01*
X209075047Y-65338850D01*
%TO.C,U4*%
X134842902Y-59804560D02*
X135978173Y-59804560D01*
X136111735Y-59737780D01*
X136178515Y-59670999D01*
X136245296Y-59537438D01*
X136245296Y-59270315D01*
X136178515Y-59136754D01*
X136111735Y-59069973D01*
X135978173Y-59003192D01*
X134842902Y-59003192D01*
X135310367Y-57734360D02*
X136245296Y-57734360D01*
X134776121Y-58068263D02*
X135777831Y-58402166D01*
X135777831Y-57534018D01*
X149131728Y-66674373D02*
X149131728Y-65272074D01*
X149599161Y-66273716D01*
X150066594Y-65272074D01*
X150066594Y-66674373D01*
X151535670Y-66540821D02*
X151468893Y-66607597D01*
X151268565Y-66674373D01*
X151135013Y-66674373D01*
X150934684Y-66607597D01*
X150801132Y-66474044D01*
X150734356Y-66340492D01*
X150667580Y-66073388D01*
X150667580Y-65873059D01*
X150734356Y-65605955D01*
X150801132Y-65472402D01*
X150934684Y-65338850D01*
X151135013Y-65272074D01*
X151268565Y-65272074D01*
X151468893Y-65338850D01*
X151535670Y-65405626D01*
X152136655Y-66674373D02*
X152136655Y-65272074D01*
X152670864Y-65272074D01*
X152804416Y-65338850D01*
X152871192Y-65405626D01*
X152937969Y-65539178D01*
X152937969Y-65739507D01*
X152871192Y-65873059D01*
X152804416Y-65939835D01*
X152670864Y-66006611D01*
X152136655Y-66006611D01*
X153472178Y-65405626D02*
X153538954Y-65338850D01*
X153672506Y-65272074D01*
X154006387Y-65272074D01*
X154139939Y-65338850D01*
X154206715Y-65405626D01*
X154273491Y-65539178D01*
X154273491Y-65672731D01*
X154206715Y-65873059D01*
X153405402Y-66674373D01*
X154273491Y-66674373D01*
X154740924Y-65272074D02*
X155609014Y-65272074D01*
X155141581Y-65806283D01*
X155341910Y-65806283D01*
X155475462Y-65873059D01*
X155542238Y-65939835D01*
X155609014Y-66073388D01*
X155609014Y-66407268D01*
X155542238Y-66540821D01*
X155475462Y-66607597D01*
X155341910Y-66674373D01*
X154941253Y-66674373D01*
X154807701Y-66607597D01*
X154740924Y-66540821D01*
X156477104Y-65272074D02*
X156610656Y-65272074D01*
X156744209Y-65338850D01*
X156810985Y-65405626D01*
X156877761Y-65539178D01*
X156944537Y-65806283D01*
X156944537Y-66140164D01*
X156877761Y-66407268D01*
X156810985Y-66540821D01*
X156744209Y-66607597D01*
X156610656Y-66674373D01*
X156477104Y-66674373D01*
X156343552Y-66607597D01*
X156276776Y-66540821D01*
X156210000Y-66407268D01*
X156143223Y-66140164D01*
X156143223Y-65806283D01*
X156210000Y-65539178D01*
X156276776Y-65405626D01*
X156343552Y-65338850D01*
X156477104Y-65272074D01*
X158280060Y-66674373D02*
X157478746Y-66674373D01*
X157879403Y-66674373D02*
X157879403Y-65272074D01*
X157745851Y-65472402D01*
X157612299Y-65605955D01*
X157478746Y-65672731D01*
X158747493Y-65272074D02*
X159682359Y-65272074D01*
X159081374Y-66674373D01*
X159882687Y-66807925D02*
X160951106Y-66807925D01*
X161218210Y-66607597D02*
X161418539Y-66674373D01*
X161752419Y-66674373D01*
X161885972Y-66607597D01*
X161952748Y-66540821D01*
X162019524Y-66407268D01*
X162019524Y-66273716D01*
X161952748Y-66140164D01*
X161885972Y-66073388D01*
X161752419Y-66006611D01*
X161485315Y-65939835D01*
X161351763Y-65873059D01*
X161284986Y-65806283D01*
X161218210Y-65672731D01*
X161218210Y-65539178D01*
X161284986Y-65405626D01*
X161351763Y-65338850D01*
X161485315Y-65272074D01*
X161819196Y-65272074D01*
X162019524Y-65338850D01*
X162553733Y-66607597D02*
X162754062Y-66674373D01*
X163087942Y-66674373D01*
X163221495Y-66607597D01*
X163288271Y-66540821D01*
X163355047Y-66407268D01*
X163355047Y-66273716D01*
X163288271Y-66140164D01*
X163221495Y-66073388D01*
X163087942Y-66006611D01*
X162820838Y-65939835D01*
X162687285Y-65873059D01*
X162620509Y-65806283D01*
X162553733Y-65672731D01*
X162553733Y-65539178D01*
X162620509Y-65405626D01*
X162687285Y-65338850D01*
X162820838Y-65272074D01*
X163154718Y-65272074D01*
X163355047Y-65338850D01*
%TO.C,U3*%
X82772902Y-59804560D02*
X83908173Y-59804560D01*
X84041735Y-59737780D01*
X84108515Y-59670999D01*
X84175296Y-59537438D01*
X84175296Y-59270315D01*
X84108515Y-59136754D01*
X84041735Y-59069973D01*
X83908173Y-59003192D01*
X82772902Y-59003192D01*
X82772902Y-58468947D02*
X82772902Y-57600798D01*
X83307147Y-58068263D01*
X83307147Y-57867921D01*
X83373928Y-57734360D01*
X83440709Y-57667579D01*
X83574270Y-57600798D01*
X83908173Y-57600798D01*
X84041735Y-57667579D01*
X84108515Y-57734360D01*
X84175296Y-57867921D01*
X84175296Y-58268605D01*
X84108515Y-58402166D01*
X84041735Y-58468947D01*
X95791728Y-66674373D02*
X95791728Y-65272074D01*
X96259161Y-66273716D01*
X96726594Y-65272074D01*
X96726594Y-66674373D01*
X98195669Y-66540821D02*
X98128893Y-66607597D01*
X97928565Y-66674373D01*
X97795013Y-66674373D01*
X97594684Y-66607597D01*
X97461132Y-66474044D01*
X97394356Y-66340492D01*
X97327580Y-66073388D01*
X97327580Y-65873059D01*
X97394356Y-65605955D01*
X97461132Y-65472402D01*
X97594684Y-65338850D01*
X97795013Y-65272074D01*
X97928565Y-65272074D01*
X98128893Y-65338850D01*
X98195669Y-65405626D01*
X98796655Y-66674373D02*
X98796655Y-65272074D01*
X99330864Y-65272074D01*
X99464416Y-65338850D01*
X99531192Y-65405626D01*
X99597968Y-65539178D01*
X99597968Y-65739507D01*
X99531192Y-65873059D01*
X99464416Y-65939835D01*
X99330864Y-66006611D01*
X98796655Y-66006611D01*
X100132178Y-65405626D02*
X100198954Y-65338850D01*
X100332506Y-65272074D01*
X100666387Y-65272074D01*
X100799939Y-65338850D01*
X100866715Y-65405626D01*
X100933491Y-65539178D01*
X100933491Y-65672731D01*
X100866715Y-65873059D01*
X100065401Y-66674373D01*
X100933491Y-66674373D01*
X101400924Y-65272074D02*
X102269014Y-65272074D01*
X101801581Y-65806283D01*
X102001910Y-65806283D01*
X102135462Y-65873059D01*
X102202238Y-65939835D01*
X102269014Y-66073388D01*
X102269014Y-66407268D01*
X102202238Y-66540821D01*
X102135462Y-66607597D01*
X102001910Y-66674373D01*
X101601253Y-66674373D01*
X101467700Y-66607597D01*
X101400924Y-66540821D01*
X103137104Y-65272074D02*
X103270656Y-65272074D01*
X103404209Y-65338850D01*
X103470985Y-65405626D01*
X103537761Y-65539178D01*
X103604537Y-65806283D01*
X103604537Y-66140164D01*
X103537761Y-66407268D01*
X103470985Y-66540821D01*
X103404209Y-66607597D01*
X103270656Y-66674373D01*
X103137104Y-66674373D01*
X103003552Y-66607597D01*
X102936776Y-66540821D01*
X102869999Y-66407268D01*
X102803223Y-66140164D01*
X102803223Y-65806283D01*
X102869999Y-65539178D01*
X102936776Y-65405626D01*
X103003552Y-65338850D01*
X103137104Y-65272074D01*
X104940060Y-66674373D02*
X104138746Y-66674373D01*
X104539403Y-66674373D02*
X104539403Y-65272074D01*
X104405851Y-65472402D01*
X104272298Y-65605955D01*
X104138746Y-65672731D01*
X105407493Y-65272074D02*
X106342359Y-65272074D01*
X105741374Y-66674373D01*
X106542687Y-66807925D02*
X107611106Y-66807925D01*
X107878210Y-66607597D02*
X108078539Y-66674373D01*
X108412419Y-66674373D01*
X108545972Y-66607597D01*
X108612748Y-66540821D01*
X108679524Y-66407268D01*
X108679524Y-66273716D01*
X108612748Y-66140164D01*
X108545972Y-66073388D01*
X108412419Y-66006611D01*
X108145315Y-65939835D01*
X108011762Y-65873059D01*
X107944986Y-65806283D01*
X107878210Y-65672731D01*
X107878210Y-65539178D01*
X107944986Y-65405626D01*
X108011762Y-65338850D01*
X108145315Y-65272074D01*
X108479195Y-65272074D01*
X108679524Y-65338850D01*
X109213733Y-66607597D02*
X109414061Y-66674373D01*
X109747942Y-66674373D01*
X109881494Y-66607597D01*
X109948271Y-66540821D01*
X110015047Y-66407268D01*
X110015047Y-66273716D01*
X109948271Y-66140164D01*
X109881494Y-66073388D01*
X109747942Y-66006611D01*
X109480838Y-65939835D01*
X109347285Y-65873059D01*
X109280509Y-65806283D01*
X109213733Y-65672731D01*
X109213733Y-65539178D01*
X109280509Y-65405626D01*
X109347285Y-65338850D01*
X109480838Y-65272074D01*
X109814718Y-65272074D01*
X110015047Y-65338850D01*
%TO.C,U1*%
X180864221Y-97736489D02*
X180864221Y-99065350D01*
X180942390Y-99221687D01*
X181020558Y-99299855D01*
X181176895Y-99378024D01*
X181489568Y-99378024D01*
X181645905Y-99299855D01*
X181724073Y-99221687D01*
X181802241Y-99065350D01*
X181802241Y-97736489D01*
X183443776Y-99378024D02*
X182505756Y-99378024D01*
X182974766Y-99378024D02*
X182974766Y-97736489D01*
X182818430Y-97970994D01*
X182662093Y-98127330D01*
X182505756Y-98205499D01*
X189894845Y-118272600D02*
X189973062Y-118037949D01*
X189973062Y-117646864D01*
X189894845Y-117490430D01*
X189816628Y-117412212D01*
X189660194Y-117333995D01*
X189503759Y-117333995D01*
X189347325Y-117412212D01*
X189269108Y-117490430D01*
X189190891Y-117646864D01*
X189112674Y-117959732D01*
X189034457Y-118116166D01*
X188956240Y-118194383D01*
X188799805Y-118272600D01*
X188643371Y-118272600D01*
X188486937Y-118194383D01*
X188408720Y-118116166D01*
X188330503Y-117959732D01*
X188330503Y-117568647D01*
X188408720Y-117333995D01*
X189973062Y-116630041D02*
X188330503Y-116630041D01*
X189973062Y-115691436D01*
X188330503Y-115691436D01*
X188330503Y-115065700D02*
X188330503Y-113970660D01*
X189973062Y-114674614D01*
X188878023Y-112640970D02*
X189973062Y-112640970D01*
X188252286Y-113032055D02*
X189425542Y-113423141D01*
X189425542Y-112406318D01*
X189973062Y-111780582D02*
X188330503Y-111780582D01*
X189112674Y-111780582D02*
X189112674Y-110841976D01*
X189973062Y-110841976D02*
X188330503Y-110841976D01*
X189816628Y-109121200D02*
X189894845Y-109199417D01*
X189973062Y-109434069D01*
X189973062Y-109590503D01*
X189894845Y-109825154D01*
X189738411Y-109981588D01*
X189581976Y-110059805D01*
X189269108Y-110138023D01*
X189034457Y-110138023D01*
X188721588Y-110059805D01*
X188565154Y-109981588D01*
X188408720Y-109825154D01*
X188330503Y-109590503D01*
X188330503Y-109434069D01*
X188408720Y-109199417D01*
X188486937Y-109121200D01*
X189973062Y-107556858D02*
X189973062Y-108495464D01*
X189973062Y-108026161D02*
X188330503Y-108026161D01*
X188565154Y-108182595D01*
X188721588Y-108339029D01*
X188799805Y-108495464D01*
X188486937Y-106931122D02*
X188408720Y-106852905D01*
X188330503Y-106696470D01*
X188330503Y-106305385D01*
X188408720Y-106148951D01*
X188486937Y-106070734D01*
X188643371Y-105992517D01*
X188799805Y-105992517D01*
X189034457Y-106070734D01*
X189973062Y-107009339D01*
X189973062Y-105992517D01*
X188330503Y-104506392D02*
X188330503Y-105288563D01*
X189112674Y-105366780D01*
X189034457Y-105288563D01*
X188956240Y-105132128D01*
X188956240Y-104741043D01*
X189034457Y-104584609D01*
X189112674Y-104506392D01*
X189269108Y-104428175D01*
X189660194Y-104428175D01*
X189816628Y-104506392D01*
X189894845Y-104584609D01*
X189973062Y-104741043D01*
X189973062Y-105132128D01*
X189894845Y-105288563D01*
X189816628Y-105366780D01*
X189973062Y-103724221D02*
X188330503Y-103724221D01*
X189973062Y-102785616D01*
X188330503Y-102785616D01*
%TO.C,J00_IN1*%
X58531428Y-142962380D02*
X58531428Y-143676666D01*
X58483809Y-143819523D01*
X58388571Y-143914761D01*
X58245714Y-143962380D01*
X58150476Y-143962380D01*
X59198095Y-142962380D02*
X59293333Y-142962380D01*
X59388571Y-143010000D01*
X59436190Y-143057619D01*
X59483809Y-143152857D01*
X59531428Y-143343333D01*
X59531428Y-143581428D01*
X59483809Y-143771904D01*
X59436190Y-143867142D01*
X59388571Y-143914761D01*
X59293333Y-143962380D01*
X59198095Y-143962380D01*
X59102857Y-143914761D01*
X59055238Y-143867142D01*
X59007619Y-143771904D01*
X58960000Y-143581428D01*
X58960000Y-143343333D01*
X59007619Y-143152857D01*
X59055238Y-143057619D01*
X59102857Y-143010000D01*
X59198095Y-142962380D01*
X60150476Y-142962380D02*
X60245714Y-142962380D01*
X60340952Y-143010000D01*
X60388571Y-143057619D01*
X60436190Y-143152857D01*
X60483809Y-143343333D01*
X60483809Y-143581428D01*
X60436190Y-143771904D01*
X60388571Y-143867142D01*
X60340952Y-143914761D01*
X60245714Y-143962380D01*
X60150476Y-143962380D01*
X60055238Y-143914761D01*
X60007619Y-143867142D01*
X59960000Y-143771904D01*
X59912380Y-143581428D01*
X59912380Y-143343333D01*
X59960000Y-143152857D01*
X60007619Y-143057619D01*
X60055238Y-143010000D01*
X60150476Y-142962380D01*
X60674285Y-144057619D02*
X61436190Y-144057619D01*
X61674285Y-143962380D02*
X61674285Y-142962380D01*
X62150476Y-143962380D02*
X62150476Y-142962380D01*
X62721904Y-143962380D01*
X62721904Y-142962380D01*
X63721904Y-143962380D02*
X63150476Y-143962380D01*
X63436190Y-143962380D02*
X63436190Y-142962380D01*
X63340952Y-143105238D01*
X63245714Y-143200476D01*
X63150476Y-143248095D01*
%TO.C,J13*%
X102532380Y-140509523D02*
X103246666Y-140509523D01*
X103389523Y-140557142D01*
X103484761Y-140652380D01*
X103532380Y-140795238D01*
X103532380Y-140890476D01*
X103532380Y-139509523D02*
X103532380Y-140080952D01*
X103532380Y-139795238D02*
X102532380Y-139795238D01*
X102675238Y-139890476D01*
X102770476Y-139985714D01*
X102818095Y-140080952D01*
X102532380Y-139176190D02*
X102532380Y-138557142D01*
X102913333Y-138890476D01*
X102913333Y-138747619D01*
X102960952Y-138652380D01*
X103008571Y-138604761D01*
X103103809Y-138557142D01*
X103341904Y-138557142D01*
X103437142Y-138604761D01*
X103484761Y-138652380D01*
X103532380Y-138747619D01*
X103532380Y-139033333D01*
X103484761Y-139128571D01*
X103437142Y-139176190D01*
%TO.C,J12*%
X222762380Y-35099523D02*
X223476666Y-35099523D01*
X223619523Y-35147142D01*
X223714761Y-35242380D01*
X223762380Y-35385238D01*
X223762380Y-35480476D01*
X223762380Y-34099523D02*
X223762380Y-34670952D01*
X223762380Y-34385238D02*
X222762380Y-34385238D01*
X222905238Y-34480476D01*
X223000476Y-34575714D01*
X223048095Y-34670952D01*
X222857619Y-33718571D02*
X222810000Y-33670952D01*
X222762380Y-33575714D01*
X222762380Y-33337619D01*
X222810000Y-33242380D01*
X222857619Y-33194761D01*
X222952857Y-33147142D01*
X223048095Y-33147142D01*
X223190952Y-33194761D01*
X223762380Y-33766190D01*
X223762380Y-33147142D01*
%TO.C,J11*%
X174502380Y-35099523D02*
X175216666Y-35099523D01*
X175359523Y-35147142D01*
X175454761Y-35242380D01*
X175502380Y-35385238D01*
X175502380Y-35480476D01*
X175502380Y-34099523D02*
X175502380Y-34670952D01*
X175502380Y-34385238D02*
X174502380Y-34385238D01*
X174645238Y-34480476D01*
X174740476Y-34575714D01*
X174788095Y-34670952D01*
X175502380Y-33147142D02*
X175502380Y-33718571D01*
X175502380Y-33432857D02*
X174502380Y-33432857D01*
X174645238Y-33528095D01*
X174740476Y-33623333D01*
X174788095Y-33718571D01*
%TO.C,J10*%
X123702380Y-35099523D02*
X124416666Y-35099523D01*
X124559523Y-35147142D01*
X124654761Y-35242380D01*
X124702380Y-35385238D01*
X124702380Y-35480476D01*
X124702380Y-34099523D02*
X124702380Y-34670952D01*
X124702380Y-34385238D02*
X123702380Y-34385238D01*
X123845238Y-34480476D01*
X123940476Y-34575714D01*
X123988095Y-34670952D01*
X123702380Y-33480476D02*
X123702380Y-33385238D01*
X123750000Y-33290000D01*
X123797619Y-33242380D01*
X123892857Y-33194761D01*
X124083333Y-33147142D01*
X124321428Y-33147142D01*
X124511904Y-33194761D01*
X124607142Y-33242380D01*
X124654761Y-33290000D01*
X124702380Y-33385238D01*
X124702380Y-33480476D01*
X124654761Y-33575714D01*
X124607142Y-33623333D01*
X124511904Y-33670952D01*
X124321428Y-33718571D01*
X124083333Y-33718571D01*
X123892857Y-33670952D01*
X123797619Y-33623333D01*
X123750000Y-33575714D01*
X123702380Y-33480476D01*
%TO.C,J9*%
X76712380Y-34623333D02*
X77426666Y-34623333D01*
X77569523Y-34670952D01*
X77664761Y-34766190D01*
X77712380Y-34909047D01*
X77712380Y-35004285D01*
X77712380Y-34099523D02*
X77712380Y-33909047D01*
X77664761Y-33813809D01*
X77617142Y-33766190D01*
X77474285Y-33670952D01*
X77283809Y-33623333D01*
X76902857Y-33623333D01*
X76807619Y-33670952D01*
X76760000Y-33718571D01*
X76712380Y-33813809D01*
X76712380Y-34004285D01*
X76760000Y-34099523D01*
X76807619Y-34147142D01*
X76902857Y-34194761D01*
X77140952Y-34194761D01*
X77236190Y-34147142D01*
X77283809Y-34099523D01*
X77331428Y-34004285D01*
X77331428Y-33813809D01*
X77283809Y-33718571D01*
X77236190Y-33670952D01*
X77140952Y-33623333D01*
%TO.C,J8*%
X35012380Y-75263333D02*
X35726666Y-75263333D01*
X35869523Y-75310952D01*
X35964761Y-75406190D01*
X36012380Y-75549047D01*
X36012380Y-75644285D01*
X35440952Y-74644285D02*
X35393333Y-74739523D01*
X35345714Y-74787142D01*
X35250476Y-74834761D01*
X35202857Y-74834761D01*
X35107619Y-74787142D01*
X35060000Y-74739523D01*
X35012380Y-74644285D01*
X35012380Y-74453809D01*
X35060000Y-74358571D01*
X35107619Y-74310952D01*
X35202857Y-74263333D01*
X35250476Y-74263333D01*
X35345714Y-74310952D01*
X35393333Y-74358571D01*
X35440952Y-74453809D01*
X35440952Y-74644285D01*
X35488571Y-74739523D01*
X35536190Y-74787142D01*
X35631428Y-74834761D01*
X35821904Y-74834761D01*
X35917142Y-74787142D01*
X35964761Y-74739523D01*
X36012380Y-74644285D01*
X36012380Y-74453809D01*
X35964761Y-74358571D01*
X35917142Y-74310952D01*
X35821904Y-74263333D01*
X35631428Y-74263333D01*
X35536190Y-74310952D01*
X35488571Y-74358571D01*
X35440952Y-74453809D01*
%TO.C,J7*%
X35012380Y-93043333D02*
X35726666Y-93043333D01*
X35869523Y-93090952D01*
X35964761Y-93186190D01*
X36012380Y-93329047D01*
X36012380Y-93424285D01*
X35012380Y-92662380D02*
X35012380Y-91995714D01*
X36012380Y-92424285D01*
%TO.C,J6*%
X35012380Y-110823333D02*
X35726666Y-110823333D01*
X35869523Y-110870952D01*
X35964761Y-110966190D01*
X36012380Y-111109047D01*
X36012380Y-111204285D01*
X35012380Y-109918571D02*
X35012380Y-110109047D01*
X35060000Y-110204285D01*
X35107619Y-110251904D01*
X35250476Y-110347142D01*
X35440952Y-110394761D01*
X35821904Y-110394761D01*
X35917142Y-110347142D01*
X35964761Y-110299523D01*
X36012380Y-110204285D01*
X36012380Y-110013809D01*
X35964761Y-109918571D01*
X35917142Y-109870952D01*
X35821904Y-109823333D01*
X35583809Y-109823333D01*
X35488571Y-109870952D01*
X35440952Y-109918571D01*
X35393333Y-110013809D01*
X35393333Y-110204285D01*
X35440952Y-110299523D01*
X35488571Y-110347142D01*
X35583809Y-110394761D01*
%TO.C,J5*%
X35012380Y-128603333D02*
X35726666Y-128603333D01*
X35869523Y-128650952D01*
X35964761Y-128746190D01*
X36012380Y-128889047D01*
X36012380Y-128984285D01*
X35012380Y-127650952D02*
X35012380Y-128127142D01*
X35488571Y-128174761D01*
X35440952Y-128127142D01*
X35393333Y-128031904D01*
X35393333Y-127793809D01*
X35440952Y-127698571D01*
X35488571Y-127650952D01*
X35583809Y-127603333D01*
X35821904Y-127603333D01*
X35917142Y-127650952D01*
X35964761Y-127698571D01*
X36012380Y-127793809D01*
X36012380Y-128031904D01*
X35964761Y-128127142D01*
X35917142Y-128174761D01*
%TO.C,J4*%
X206892380Y-138793333D02*
X207606666Y-138793333D01*
X207749523Y-138840952D01*
X207844761Y-138936190D01*
X207892380Y-139079047D01*
X207892380Y-139174285D01*
X207225714Y-137888571D02*
X207892380Y-137888571D01*
X206844761Y-138126666D02*
X207559047Y-138364761D01*
X207559047Y-137745714D01*
%TO.C,J2*%
X206892380Y-121013333D02*
X207606666Y-121013333D01*
X207749523Y-121060952D01*
X207844761Y-121156190D01*
X207892380Y-121299047D01*
X207892380Y-121394285D01*
X206987619Y-120584761D02*
X206940000Y-120537142D01*
X206892380Y-120441904D01*
X206892380Y-120203809D01*
X206940000Y-120108571D01*
X206987619Y-120060952D01*
X207082857Y-120013333D01*
X207178095Y-120013333D01*
X207320952Y-120060952D01*
X207892380Y-120632380D01*
X207892380Y-120013333D01*
%TO.C,J1*%
X206892380Y-103233333D02*
X207606666Y-103233333D01*
X207749523Y-103280952D01*
X207844761Y-103376190D01*
X207892380Y-103519047D01*
X207892380Y-103614285D01*
X207892380Y-102233333D02*
X207892380Y-102804761D01*
X207892380Y-102519047D02*
X206892380Y-102519047D01*
X207035238Y-102614285D01*
X207130476Y-102709523D01*
X207178095Y-102804761D01*
%TO.C,J0*%
X206892380Y-85453333D02*
X207606666Y-85453333D01*
X207749523Y-85500952D01*
X207844761Y-85596190D01*
X207892380Y-85739047D01*
X207892380Y-85834285D01*
X206892380Y-84786666D02*
X206892380Y-84691428D01*
X206940000Y-84596190D01*
X206987619Y-84548571D01*
X207082857Y-84500952D01*
X207273333Y-84453333D01*
X207511428Y-84453333D01*
X207701904Y-84500952D01*
X207797142Y-84548571D01*
X207844761Y-84596190D01*
X207892380Y-84691428D01*
X207892380Y-84786666D01*
X207844761Y-84881904D01*
X207797142Y-84929523D01*
X207701904Y-84977142D01*
X207511428Y-85024761D01*
X207273333Y-85024761D01*
X207082857Y-84977142D01*
X206987619Y-84929523D01*
X206940000Y-84881904D01*
X206892380Y-84786666D01*
%TO.C,F0*%
X64348571Y-125883333D02*
X64348571Y-126216666D01*
X64872380Y-126216666D02*
X63872380Y-126216666D01*
X63872380Y-125740476D01*
X63872380Y-125169047D02*
X63872380Y-125073809D01*
X63920000Y-124978571D01*
X63967619Y-124930952D01*
X64062857Y-124883333D01*
X64253333Y-124835714D01*
X64491428Y-124835714D01*
X64681904Y-124883333D01*
X64777142Y-124930952D01*
X64824761Y-124978571D01*
X64872380Y-125073809D01*
X64872380Y-125169047D01*
X64824761Y-125264285D01*
X64777142Y-125311904D01*
X64681904Y-125359523D01*
X64491428Y-125407142D01*
X64253333Y-125407142D01*
X64062857Y-125359523D01*
X63967619Y-125311904D01*
X63920000Y-125264285D01*
X63872380Y-125169047D01*
%TD*%
M02*
